<?xml version="1.0" encoding="utf-8"?>
<svg version="1.1" xmlns:xlink="http://www.w3.org/1999/xlink" width="26px" height="24px" xmlns="http://www.w3.org/2000/svg">
  <g transform="matrix(1 0 0 1 -1640 -178 )">
    <path d="M 6 18  L 6 22  L 20 22  L 20 18  L 6 18  Z M 6 2  L 6 12  L 20 12  L 20 6  L 17.5 6  C 17.0833333333333 6  16.7291666666667 5.85416666666667  16.4375 5.5625  C 16.1458333333333 5.27083333333333  16 4.91666666666667  16 4.5  L 16 2  L 6 2  Z M 23.703125 13.703125  C 23.9010416666667 13.5052083333333  24 13.2708333333333  24 13  C 24 12.7291666666667  23.9010416666667 12.4947916666667  23.703125 12.296875  C 23.5052083333333 12.0989583333333  23.2708333333333 12  23 12  C 22.7291666666667 12  22.4947916666667 12.0989583333333  22.296875 12.296875  C 22.0989583333333 12.4947916666667  22 12.7291666666667  22 13  C 22 13.2708333333333  22.0989583333333 13.5052083333333  22.296875 13.703125  C 22.4947916666667 13.9010416666667  22.7291666666667 14  23 14  C 23.2708333333333 14  23.5052083333333 13.9010416666667  23.703125 13.703125  Z M 25.1171875 10.8828125  C 25.7057291666667 11.4713541666667  26 12.1770833333333  26 13  L 26 19.5  C 26 19.6354166666667  25.9505208333333 19.7526041666667  25.8515625 19.8515625  C 25.7526041666667 19.9505208333333  25.6354166666667 20  25.5 20  L 22 20  L 22 22.5  C 22 22.9166666666667  21.8541666666667 23.2708333333333  21.5625 23.5625  C 21.2708333333333 23.8541666666667  20.9166666666667 24  20.5 24  L 5.5 24  C 5.08333333333333 24  4.72916666666667 23.8541666666667  4.4375 23.5625  C 4.14583333333333 23.2708333333333  4 22.9166666666667  4 22.5  L 4 20  L 0.5 20  C 0.364583333333333 20  0.247395833333333 19.9505208333333  0.1484375 19.8515625  C 0.0494791666666667 19.7526041666667  0 19.6354166666667  0 19.5  L 0 13  C 0 12.1770833333333  0.294270833333333 11.4713541666667  0.8828125 10.8828125  C 1.47135416666667 10.2942708333333  2.17708333333333 10  3 10  L 4 10  L 4 1.5  C 4 1.08333333333333  4.14583333333333 0.729166666666663  4.4375 0.437499999999999  C 4.72916666666667 0.145833333333332  5.08333333333333 0  5.5 0  L 16 0  C 16.4166666666667 0  16.875 0.104166666666664  17.375 0.312500000000001  C 17.875 0.520833333333332  18.2708333333333 0.770833333333331  18.5625 1.0625  L 20.9375 3.4375  C 21.2291666666667 3.72916666666666  21.4791666666667 4.125  21.6875 4.625  C 21.8958333333333 5.125  22 5.58333333333333  22 6  L 22 10  L 23 10  C 23.8229166666667 10  24.5286458333333 10.2942708333333  25.1171875 10.8828125  Z " fill-rule="nonzero" fill="#000000" stroke="none" transform="matrix(1 0 0 1 1640 178 )" />
  </g>
</svg>