<?xml version="1.0" encoding="utf-8"?>
<svg version="1.1" xmlns:xlink="http://www.w3.org/1999/xlink" width="12px" height="12px" viewBox="590 192.5  12 12" xmlns="http://www.w3.org/2000/svg">
  <path d="M 596 192.5  C 599.36 192.5  602 195.14  602 198.5  C 602 201.86  599.36 204.5  596 204.5  C 592.64 204.5  590 201.86  590 198.5  C 590 195.14  592.64 192.5  596 192.5  Z " fill-rule="nonzero" fill="#f0f0f0" stroke="none" />
  <path d="M 596 193  C 599.08 193  601.5 195.42  601.5 198.5  C 601.5 201.58  599.08 204  596 204  C 592.92 204  590.5 201.58  590.5 198.5  C 590.5 195.42  592.92 193  596 193  Z " stroke-width="1" stroke="#555555" fill="none" />
  <path d="M 596 201.5  C 594.32 201.5  593 200.18  593 198.5  C 593 196.82  594.32 195.5  596 195.5  C 597.68 195.5  599 196.82  599 198.5  C 599 200.18  597.68 201.5  596 201.5  " fill-rule="nonzero" fill="#555555" stroke="none" />
</svg>