<?xml version="1.0" encoding="utf-8"?>
<svg version="1.1" xmlns:xlink="http://www.w3.org/1999/xlink" width="12px" height="12px" viewBox="590 236.5  12 12" xmlns="http://www.w3.org/2000/svg">
  <path d="M 596 236.5  C 599.36 236.5  602 239.14  602 242.5  C 602 245.86  599.36 248.5  596 248.5  C 592.64 248.5  590 245.86  590 242.5  C 590 239.14  592.64 236.5  596 236.5  Z " fill-rule="nonzero" fill="#f0f0f0" stroke="none" />
  <path d="M 596 237  C 599.08 237  601.5 239.42  601.5 242.5  C 601.5 245.58  599.08 248  596 248  C 592.92 248  590.5 245.58  590.5 242.5  C 590.5 239.42  592.92 237  596 237  Z " stroke-width="1" stroke="#555555" fill="none" />
  <path d="M 596 245.5  C 594.32 245.5  593 244.18  593 242.5  C 593 240.82  594.32 239.5  596 239.5  C 597.68 239.5  599 240.82  599 242.5  C 599 244.18  597.68 245.5  596 245.5  " fill-rule="nonzero" fill="#555555" stroke="none" />
</svg>