<?xml version="1.0" encoding="utf-8"?>
<svg version="1.1" xmlns:xlink="http://www.w3.org/1999/xlink" width="21px" height="21px" xmlns="http://www.w3.org/2000/svg">
  <g transform="matrix(1 0 0 1 -1827 -234 )">
    <path d="M 11.8125 17.58203125  C 12.0494791666667 17.58203125  12.2545572916667 17.4954427083333  12.427734375 17.322265625  L 13.822265625 15.927734375  C 13.9954427083333 15.7545572916667  14.08203125 15.5494791666667  14.08203125 15.3125  C 14.08203125 15.0755208333333  13.9954427083333 14.8704427083333  13.822265625 14.697265625  L 9.625 10.5  L 13.822265625 6.302734375  C 13.9954427083333 6.12955729166667  14.08203125 5.92447916666667  14.08203125 5.6875  C 14.08203125 5.45052083333333  13.9954427083333 5.24544270833333  13.822265625 5.072265625  L 12.427734375 3.677734375  C 12.2545572916667 3.50455729166666  12.0494791666667 3.41796875  11.8125 3.41796875  C 11.5755208333333 3.41796875  11.3704427083333 3.50455729166666  11.197265625 3.677734375  L 4.990234375 9.884765625  C 4.81705729166667 10.0579427083333  4.73046875 10.2630208333333  4.73046875 10.5  C 4.73046875 10.7369791666667  4.81705729166667 10.9420572916667  4.990234375 11.115234375  L 11.197265625 17.322265625  C 11.3704427083333 17.4954427083333  11.5755208333333 17.58203125  11.8125 17.58203125  Z M 19.591796875 5.2294921875  C 20.5305989583333 6.83821614583333  21 8.59505208333333  21 10.5  C 21 12.4049479166667  20.5305989583333 14.1617838541667  19.591796875 15.7705078125  C 18.6529947916667 17.3792317708333  17.3792317708333 18.6529947916667  15.7705078125 19.591796875  C 14.1617838541667 20.5305989583333  12.4049479166667 21  10.5 21  C 8.59505208333333 21  6.83821614583333 20.5305989583333  5.2294921875 19.591796875  C 3.62076822916667 18.6529947916667  2.34700520833333 17.3792317708333  1.408203125 15.7705078125  C 0.469401041666667 14.1617838541667  0 12.4049479166667  0 10.5  C 0 8.59505208333333  0.469401041666667 6.83821614583333  1.408203125 5.2294921875  C 2.34700520833333 3.62076822916667  3.62076822916667 2.34700520833333  5.2294921875 1.408203125  C 6.83821614583333 0.469401041666665  8.59505208333333 0  10.5 0  C 12.4049479166667 0  14.1617838541667 0.469401041666665  15.7705078125 1.408203125  C 17.3792317708333 2.34700520833333  18.6529947916667 3.62076822916667  19.591796875 5.2294921875  Z " fill-rule="nonzero" fill="#ffffff" stroke="none" transform="matrix(1 0 0 1 1827 234 )" />
  </g>
</svg>