<?xml version="1.0" encoding="utf-8"?>
<svg version="1.1" xmlns:xlink="http://www.w3.org/1999/xlink" width="34px" height="27px" xmlns="http://www.w3.org/2000/svg">
  <g transform="matrix(1 0 0 1 -1626 -380 )">
    <path d="M 15.8565022421525 20.25  L 16.9237668161435 20.25  L 19.1345291479821 18.0255681818182  L 16.237668161435 15.1107954545455  L 14.0269058295964 17.3352272727273  L 14.0269058295964 18.4090909090909  L 15.8565022421525 18.4090909090909  L 15.8565022421525 20.25  Z M 25.2903587443946 7.07599431818182  C 25.5063527653214 6.85866477272727  25.5127055306428 6.64772727272727  25.3094170403587 6.44318181818182  C 25.1061285500747 6.23863636363636  24.8964872944694 6.24502840909091  24.6804932735426 6.46235795454546  L 18.0100896860987 13.1740056818182  C 17.7940956651719 13.3913352272727  17.7877428998505 13.6022727272727  17.9910313901345 13.8068181818182  C 18.1943198804185 14.0113636363636  18.4039611360239 14.0049715909091  18.6199551569507 13.7876420454545  L 25.2903587443946 7.07599431818182  Z M 26.4529147982063 17.2776988636364  C 26.7070254110613 17.3799715909091  26.8340807174888 17.5653409090909  26.8340807174888 17.8338068181818  L 26.8340807174888 21.4772727272727  C 26.8340807174888 22.9985795454545  26.2972720478326 24.2993607954545  25.2236547085202 25.3796164772727  C 24.1500373692078 26.4598721590909  22.8572496263079 27  21.3452914798206 27  L 5.48878923766816 27  C 3.97683109118087 27  2.68404334828102 26.4598721590909  1.61042600896861 25.3796164772727  C 0.536808669656203 24.2993607954545  0 22.9985795454545  0 21.4772727272727  L 0 5.52272727272727  C 0 4.00142045454545  0.536808669656203 2.70063920454545  1.61042600896861 1.62038352272727  C 2.68404334828102 0.540127840909088  3.97683109118087 0  5.48878923766816 0  L 21.3452914798206 0  C 22.1457399103139 0  22.8890134529148 0.159801136363635  23.5751121076233 0.479403409090908  C 23.7656950672646 0.568892045454544  23.8800448430493 0.71590909090909  23.9181614349776 0.920454545454545  C 23.9562780269058 1.13778409090909  23.8991031390135 1.32315340909091  23.7466367713004 1.4765625  L 22.8127802690583 2.41619318181818  C 22.6349028400598 2.59517045454545  22.4316143497758 2.64630681818182  22.2029147982063 2.56960227272727  C 21.910687593423 2.49289772727273  21.6248131539611 2.45454545454546  21.3452914798206 2.45454545454546  L 5.48878923766816 2.45454545454546  C 4.65022421524664 2.45454545454546  3.93236173393124 2.75497159090909  3.33520179372197 3.35582386363636  C 2.73804185351271 3.95667613636363  2.43946188340807 4.67897727272727  3 5.52272727272727  L 3 21.4772727272727  C 2.43946188340807 22.3210227272727  2.73804185351271 23.0433238636364  3.33520179372197 23.6441761363636  C 3.93236173393124 24.2450284090909  4.65022421524664 24.5454545454545  5.48878923766816 24.5454545454545  L 21.3452914798206 24.5454545454545  C 22.1838565022422 24.5454545454545  22.9017189835575 24.2450284090909  23.4988789237668 23.6441761363636  C 24.0960388639761 23.0433238636364  24.3946188340807 22.3210227272727  24.3946188340807 21.4772727272727  L 24.3946188340807 19.0610795454545  C 24.3946188340807 18.8948863636364  24.4517937219731 18.7542613636364  24.5661434977578 18.6392045454545  L 25.7858744394619 17.4119318181818  C 25.9764573991031 17.2201704545455  26.1988041853513 17.1754261363636  26.4529147982063 17.2776988636364  Z M 12.1973094170404 16.5681818181818  L 25.0044843049327 3.68181818181818  L 30.4932735426009 9.20454545454546  L 17.6860986547085 22.0909090909091  L 12.1973094170404 22.0909090909091  L 12.1973094170404 16.5681818181818  Z M 34 4.90909090909091  C 34 5.42045454545454  33.8221225710015 5.85511363636363  33.4663677130045 6.21306818181818  L 31.7130044843049 7.97727272727273  L 26.2242152466368 2.45454545454546  L 27.9775784753363 0.690340909090908  C 28.3333333333333 0.332386363636361  28.7653213751868 0.153409090909092  29.2735426008969 0.153409090909092  C 29.7817638266069 0.153409090909092  30.2137518684604 0.332386363636361  30.5695067264574 0.690340909090908  L 33.4663677130045 3.60511363636364  C 33.8221225710015 3.96306818181818  34 4.39772727272727  34 4.90909090909091  Z " fill-rule="nonzero" fill="#000000" stroke="none" transform="matrix(1 0 0 1 1626 380 )" />
  </g>
</svg>