<?xml version="1.0" encoding="utf-8"?>
<svg version="1.1" xmlns:xlink="http://www.w3.org/1999/xlink" width="12px" height="12px" viewBox="695 939  12 12" xmlns="http://www.w3.org/2000/svg">
  <path d="M 701 939  C 704.36 939  707 941.64  707 945  C 707 948.36  704.36 951  701 951  C 697.64 951  695 948.36  695 945  C 695 941.64  697.64 939  701 939  Z " fill-rule="nonzero" fill="#ffffff" stroke="none" />
  <path d="M 701 939.5  C 704.08 939.5  706.5 941.92  706.5 945  C 706.5 948.08  704.08 950.5  701 950.5  C 697.92 950.5  695.5 948.08  695.5 945  C 695.5 941.92  697.92 939.5  701 939.5  Z " stroke-width="1" stroke="#797979" fill="none" />
  <path d="M 701 948  C 699.32 948  698 946.68  698 945  C 698 943.32  699.32 942  701 942  C 702.68 942  704 943.32  704 945  C 704 946.68  702.68 948  701 948  " fill-rule="nonzero" fill="#797979" stroke="none" />
</svg>