<?xml version="1.0" encoding="utf-8"?>
<svg version="1.1" xmlns:xlink="http://www.w3.org/1999/xlink" width="12px" height="12px" viewBox="809 1182.5  12 12" xmlns="http://www.w3.org/2000/svg">
  <path d="M 815 1182.5  C 818.36 1182.5  821 1185.14  821 1188.5  C 821 1191.86  818.36 1194.5  815 1194.5  C 811.64 1194.5  809 1191.86  809 1188.5  C 809 1185.14  811.64 1182.5  815 1182.5  Z " fill-rule="nonzero" fill="#ffffff" stroke="none" />
  <path d="M 815 1183  C 818.08 1183  820.5 1185.42  820.5 1188.5  C 820.5 1191.58  818.08 1194  815 1194  C 811.92 1194  809.5 1191.58  809.5 1188.5  C 809.5 1185.42  811.92 1183  815 1183  Z " stroke-width="1" stroke="#797979" fill="none" />
  <path d="M 815 1191.5  C 813.32 1191.5  812 1190.18  812 1188.5  C 812 1186.82  813.32 1185.5  815 1185.5  C 816.68 1185.5  818 1186.82  818 1188.5  C 818 1190.18  816.68 1191.5  815 1191.5  " fill-rule="nonzero" fill="#797979" stroke="none" />
</svg>