<?xml version="1.0" encoding="utf-8"?>
<svg version="1.1" xmlns:xlink="http://www.w3.org/1999/xlink" width="12px" height="12px" viewBox="695 1020  12 12" xmlns="http://www.w3.org/2000/svg">
  <path d="M 701 1020  C 704.36 1020  707 1022.64  707 1026  C 707 1029.36  704.36 1032  701 1032  C 697.64 1032  695 1029.36  695 1026  C 695 1022.64  697.64 1020  701 1020  Z " fill-rule="nonzero" fill="#f0f0f0" stroke="none" />
  <path d="M 701 1020.5  C 704.08 1020.5  706.5 1022.92  706.5 1026  C 706.5 1029.08  704.08 1031.5  701 1031.5  C 697.92 1031.5  695.5 1029.08  695.5 1026  C 695.5 1022.92  697.92 1020.5  701 1020.5  Z " stroke-width="1" stroke="#797979" fill="none" />
  <path d="M 701 1029  C 699.32 1029  698 1027.68  698 1026  C 698 1024.32  699.32 1023  701 1023  C 702.68 1023  704 1024.32  704 1026  C 704 1027.68  702.68 1029  701 1029  " fill-rule="nonzero" fill="#797979" stroke="none" />
</svg>