<?xml version="1.0" encoding="utf-8"?>
<svg version="1.1" xmlns:xlink="http://www.w3.org/1999/xlink" width="12px" height="12px" viewBox="237 1381.5  12 12" xmlns="http://www.w3.org/2000/svg">
  <path d="M 243 1381.5  C 246.36 1381.5  249 1384.14  249 1387.5  C 249 1390.86  246.36 1393.5  243 1393.5  C 239.64 1393.5  237 1390.86  237 1387.5  C 237 1384.14  239.64 1381.5  243 1381.5  Z " fill-rule="nonzero" fill="#f0f0f0" stroke="none" />
  <path d="M 243 1382  C 246.08 1382  248.5 1384.42  248.5 1387.5  C 248.5 1390.58  246.08 1393  243 1393  C 239.92 1393  237.5 1390.58  237.5 1387.5  C 237.5 1384.42  239.92 1382  243 1382  Z " stroke-width="1" stroke="#797979" fill="none" />
  <path d="M 243 1390.5  C 241.32 1390.5  240 1389.18  240 1387.5  C 240 1385.82  241.32 1384.5  243 1384.5  C 244.68 1384.5  246 1385.82  246 1387.5  C 246 1389.18  244.68 1390.5  243 1390.5  " fill-rule="nonzero" fill="#797979" stroke="none" />
</svg>