<?xml version="1.0" encoding="utf-8"?>
<svg version="1.1" xmlns:xlink="http://www.w3.org/1999/xlink" width="12px" height="12px" viewBox="337 1381.5  12 12" xmlns="http://www.w3.org/2000/svg">
  <path d="M 343 1381.5  C 346.36 1381.5  349 1384.14  349 1387.5  C 349 1390.86  346.36 1393.5  343 1393.5  C 339.64 1393.5  337 1390.86  337 1387.5  C 337 1384.14  339.64 1381.5  343 1381.5  Z " fill-rule="nonzero" fill="#ffffff" stroke="none" />
  <path d="M 343 1382  C 346.08 1382  348.5 1384.42  348.5 1387.5  C 348.5 1390.58  346.08 1393  343 1393  C 339.92 1393  337.5 1390.58  337.5 1387.5  C 337.5 1384.42  339.92 1382  343 1382  Z " stroke-width="1" stroke="#797979" fill="none" />
  <path d="M 343 1390.5  C 341.32 1390.5  340 1389.18  340 1387.5  C 340 1385.82  341.32 1384.5  343 1384.5  C 344.68 1384.5  346 1385.82  346 1387.5  C 346 1389.18  344.68 1390.5  343 1390.5  " fill-rule="nonzero" fill="#797979" stroke="none" />
</svg>