<?xml version="1.0" encoding="utf-8"?>
<svg version="1.1" xmlns:xlink="http://www.w3.org/1999/xlink" width="174px" height="52px" xmlns="http://www.w3.org/2000/svg">
  <g transform="matrix(1 0 0 1 -1983 -319 )">
    <path d="M 1984 323  A 3 3 0 0 1 1987 320 L 2153 320  A 3 3 0 0 1 2156 323 L 2156 367  A 3 3 0 0 1 2153 370 L 1987 370  A 3 3 0 0 1 1984 367 L 1984 323  Z " fill-rule="nonzero" fill="#ff3399" stroke="none" fill-opacity="0.0980392156862745" />
    <path d="M 1983.5 323  A 3.5 3.5 0 0 1 1987 319.5 L 2153 319.5  A 3.5 3.5 0 0 1 2156.5 323 L 2156.5 367  A 3.5 3.5 0 0 1 2153 370.5 L 1987 370.5  A 3.5 3.5 0 0 1 1983.5 367 L 1983.5 323  Z " stroke-width="1" stroke-dasharray="9,4" stroke="#ff3399" fill="none" stroke-dashoffset="0.5" />
  </g>
</svg>