<?xml version="1.0" encoding="utf-8"?>
<svg version="1.1" xmlns:xlink="http://www.w3.org/1999/xlink" width="342px" height="21px" xmlns="http://www.w3.org/2000/svg">
  <defs>
    <mask fill="white" id="clip18">
      <path d="M 0 17  L 0 4  C 0 1.75999999999999  1.39656612529002 0  3.17401392111369 0  L 67.4477958236659 0  L 338.825986078886 0  C 340.60343387471 0  342 1.75999999999999  342 4  L 342 17  C 342 19.24  340.60343387471 21  338.825986078886 21  L 3.17401392111369 21  C 1.39656612529002 21  0 19.24  0 17  Z " fill-rule="evenodd" />
    </mask>
  </defs>
  <g transform="matrix(1 0 0 1 -718 -253 )">
    <path d="M 0 17  L 0 4  C 0 1.75999999999999  1.39656612529002 0  3.17401392111369 0  L 67.4477958236659 0  L 338.825986078886 0  C 340.60343387471 0  342 1.75999999999999  342 4  L 342 17  C 342 19.24  340.60343387471 21  338.825986078886 21  L 3.17401392111369 21  C 1.39656612529002 21  0 19.24  0 17  Z " fill-rule="nonzero" fill="#ff3399" stroke="none" fill-opacity="0.0980392156862745" transform="matrix(1 0 0 1 718 253 )" />
    <path d="M 0 17  L 0 4  C 0 1.75999999999999  1.39656612529002 0  3.17401392111369 0  L 67.4477958236659 0  L 338.825986078886 0  C 340.60343387471 0  342 1.75999999999999  342 4  L 342 17  C 342 19.24  340.60343387471 21  338.825986078886 21  L 3.17401392111369 21  C 1.39656612529002 21  0 19.24  0 17  Z " stroke-width="2" stroke-dasharray="9,4" stroke="#ff3399" fill="none" transform="matrix(1 0 0 1 718 253 )" mask="url(#clip18)" />
  </g>
</svg>