<?xml version="1.0" encoding="utf-8"?>
<svg version="1.1" xmlns:xlink="http://www.w3.org/1999/xlink" width="12px" height="12px" viewBox="60 64.5  12 12" xmlns="http://www.w3.org/2000/svg">
  <path d="M 66 64.5  C 69.36 64.5  72 67.14  72 70.5  C 72 73.86  69.36 76.5  66 76.5  C 62.64 76.5  60 73.86  60 70.5  C 60 67.14  62.64 64.5  66 64.5  Z " fill-rule="nonzero" fill="#f0f0f0" stroke="none" />
  <path d="M 66 65  C 69.08 65  71.5 67.42  71.5 70.5  C 71.5 73.58  69.08 76  66 76  C 62.92 76  60.5 73.58  60.5 70.5  C 60.5 67.42  62.92 65  66 65  Z " stroke-width="1" stroke="#555555" fill="none" />
  <path d="M 66 73.5  C 64.32 73.5  63 72.18  63 70.5  C 63 68.82  64.32 67.5  66 67.5  C 67.68 67.5  69 68.82  69 70.5  C 69 72.18  67.68 73.5  66 73.5  " fill-rule="nonzero" fill="#555555" stroke="none" />
</svg>