<?xml version="1.0" encoding="utf-8"?>
<svg version="1.1" xmlns:xlink="http://www.w3.org/1999/xlink" width="22px" height="15px" xmlns="http://www.w3.org/2000/svg">
  <g transform="matrix(1 0 0 1 -1878 -259 )">
    <path d="M 11.2024 4.28571428571429  C 11.0792 4.28571428571429  11 3.59249999999995  11 3.21428571428571  C 11 2.83607142857148  11.0792 2.14285714285714  11.2024 2.14285714285714  L 0 2.14285714285714  L 0 4.28571428571429  L 11.2024 4.28571428571429  Z M 22 2.14285714285714  L 19.5976 2.14285714285714  C 19.1433 1.07142857142857  17.9344 0  16.5 0  C 14.6773 0  13.2 1.43892857142853  13.2 3.21428571428571  C 13.2 4.9896428571429  14.6773 6.42857142857143  16.5 6.42857142857143  C 17.9344 6.42857142857143  19.1433 5.35714285714286  19.5976 4.28571428571429  L 22 4.28571428571429  L 22 2.14285714285714  Z M 10.7976 10.7142857142857  C 10.9208 10.7142857142857  11 11.4075000000001  11 11.7857142857143  C 11 12.1639285714285  10.9208 12.5207142857143  10.7976 12.8571428571429  L 22 12.8571428571429  L 22 10.7142857142857  L 10.7976 10.7142857142857  Z M 5.5 8.57142857142857  C 7.3227 8.57142857142857  8.8 10.0103571428571  8.8 11.7857142857143  C 8.8 13.5610714285715  7.3227 15  5.5 15  C 4.0656 15  2.8567 13.9285714285714  2.4024 12.8571428571429  L 0 12.8571428571429  L 0 10.7142857142857  L 2.4024 10.7142857142857  C 2.8567 9.64285714285714  4.0656 8.57142857142857  5.5 8.57142857142857  Z " fill-rule="nonzero" fill="#000000" stroke="none" transform="matrix(1 0 0 1 1878 259 )" />
  </g>
</svg>