<?xml version="1.0" encoding="utf-8"?>
<svg version="1.1" xmlns:xlink="http://www.w3.org/1999/xlink" width="12px" height="12px" viewBox="136 153.5  12 12" xmlns="http://www.w3.org/2000/svg">
  <path d="M 142 153.5  C 145.36 153.5  148 156.14  148 159.5  C 148 162.86  145.36 165.5  142 165.5  C 138.64 165.5  136 162.86  136 159.5  C 136 156.14  138.64 153.5  142 153.5  Z " fill-rule="nonzero" fill="#ffffff" stroke="none" />
  <path d="M 142 154  C 145.08 154  147.5 156.42  147.5 159.5  C 147.5 162.58  145.08 165  142 165  C 138.92 165  136.5 162.58  136.5 159.5  C 136.5 156.42  138.92 154  142 154  Z " stroke-width="1" stroke="#797979" fill="none" />
  <path d="M 142 162.5  C 140.32 162.5  139 161.18  139 159.5  C 139 157.82  140.32 156.5  142 156.5  C 143.68 156.5  145 157.82  145 159.5  C 145 161.18  143.68 162.5  142 162.5  " fill-rule="nonzero" fill="#797979" stroke="none" />
</svg>