<?xml version="1.0" encoding="utf-8"?>
<svg version="1.1" xmlns:xlink="http://www.w3.org/1999/xlink" width="12px" height="12px" viewBox="247 153.5  12 12" xmlns="http://www.w3.org/2000/svg">
  <path d="M 253 153.5  C 256.36 153.5  259 156.14  259 159.5  C 259 162.86  256.36 165.5  253 165.5  C 249.64 165.5  247 162.86  247 159.5  C 247 156.14  249.64 153.5  253 153.5  Z " fill-rule="nonzero" fill="#ffffff" stroke="none" />
  <path d="M 253 154  C 256.08 154  258.5 156.42  258.5 159.5  C 258.5 162.58  256.08 165  253 165  C 249.92 165  247.5 162.58  247.5 159.5  C 247.5 156.42  249.92 154  253 154  Z " stroke-width="1" stroke="#797979" fill="none" />
  <path d="M 253 162.5  C 251.32 162.5  250 161.18  250 159.5  C 250 157.82  251.32 156.5  253 156.5  C 254.68 156.5  256 157.82  256 159.5  C 256 161.18  254.68 162.5  253 162.5  " fill-rule="nonzero" fill="#797979" stroke="none" />
</svg>