<?xml version="1.0" encoding="utf-8"?>
<svg version="1.1" xmlns:xlink="http://www.w3.org/1999/xlink" width="12px" height="12px" viewBox="354 153.5  12 12" xmlns="http://www.w3.org/2000/svg">
  <path d="M 360 153.5  C 363.36 153.5  366 156.14  366 159.5  C 366 162.86  363.36 165.5  360 165.5  C 356.64 165.5  354 162.86  354 159.5  C 354 156.14  356.64 153.5  360 153.5  Z " fill-rule="nonzero" fill="#ffffff" stroke="none" />
  <path d="M 360 154  C 363.08 154  365.5 156.42  365.5 159.5  C 365.5 162.58  363.08 165  360 165  C 356.92 165  354.5 162.58  354.5 159.5  C 354.5 156.42  356.92 154  360 154  Z " stroke-width="1" stroke="#797979" fill="none" />
  <path d="M 360 162.5  C 358.32 162.5  357 161.18  357 159.5  C 357 157.82  358.32 156.5  360 156.5  C 361.68 156.5  363 157.82  363 159.5  C 363 161.18  361.68 162.5  360 162.5  " fill-rule="nonzero" fill="#797979" stroke="none" />
</svg>