<?xml version="1.0" encoding="utf-8"?>
<svg version="1.1" xmlns:xlink="http://www.w3.org/1999/xlink" width="12px" height="12px" viewBox="158 88.5  12 12" xmlns="http://www.w3.org/2000/svg">
  <path d="M 164 88.5  C 167.36 88.5  170 91.14  170 94.5  C 170 97.86  167.36 100.5  164 100.5  C 160.64 100.5  158 97.86  158 94.5  C 158 91.14  160.64 88.5  164 88.5  Z " fill-rule="nonzero" fill="#ffffff" stroke="none" />
  <path d="M 164 89  C 167.08 89  169.5 91.42  169.5 94.5  C 169.5 97.58  167.08 100  164 100  C 160.92 100  158.5 97.58  158.5 94.5  C 158.5 91.42  160.92 89  164 89  Z " stroke-width="1" stroke="#797979" fill="none" />
  <path d="M 164 97.5  C 162.32 97.5  161 96.18  161 94.5  C 161 92.82  162.32 91.5  164 91.5  C 165.68 91.5  167 92.82  167 94.5  C 167 96.18  165.68 97.5  164 97.5  " fill-rule="nonzero" fill="#797979" stroke="none" />
</svg>