<?xml version="1.0" encoding="utf-8"?>
<svg version="1.1" xmlns:xlink="http://www.w3.org/1999/xlink" width="12px" height="12px" viewBox="207 87.5  12 12" xmlns="http://www.w3.org/2000/svg">
  <path d="M 213 87.5  C 216.36 87.5  219 90.14  219 93.5  C 219 96.86  216.36 99.5  213 99.5  C 209.64 99.5  207 96.86  207 93.5  C 207 90.14  209.64 87.5  213 87.5  Z " fill-rule="nonzero" fill="#f0f0f0" stroke="none" />
  <path d="M 213 88  C 216.08 88  218.5 90.42  218.5 93.5  C 218.5 96.58  216.08 99  213 99  C 209.92 99  207.5 96.58  207.5 93.5  C 207.5 90.42  209.92 88  213 88  Z " stroke-width="1" stroke="#797979" fill="none" />
  <path d="M 213 96.5  C 211.32 96.5  210 95.18  210 93.5  C 210 91.82  211.32 90.5  213 90.5  C 214.68 90.5  216 91.82  216 93.5  C 216 95.18  214.68 96.5  213 96.5  " fill-rule="nonzero" fill="#797979" stroke="none" />
</svg>