<?xml version="1.0" encoding="utf-8"?>
<svg version="1.1" xmlns:xlink="http://www.w3.org/1999/xlink" width="230px" height="21px" xmlns="http://www.w3.org/2000/svg">
  <defs>
    <mask fill="white" id="clip6">
      <path d="M 0 17  L 0 4  C 0 1.75999999999999  0.939211136890946 0  2.13457076566125 0  L 45.3596287703016 0  L 227.865429234339 0  C 229.060788863109 0  230 1.75999999999999  230 4  L 230 17  C 230 19.24  229.060788863109 21  227.865429234339 21  L 2.13457076566125 21  C 0.939211136890946 21  0 19.24  0 17  Z " fill-rule="evenodd" />
    </mask>
  </defs>
  <g transform="matrix(1 0 0 1 -741 -256 )">
    <path d="M 0 17  L 0 4  C 0 1.75999999999999  0.939211136890946 0  2.13457076566125 0  L 45.3596287703016 0  L 227.865429234339 0  C 229.060788863109 0  230 1.75999999999999  230 4  L 230 17  C 230 19.24  229.060788863109 21  227.865429234339 21  L 2.13457076566125 21  C 0.939211136890946 21  0 19.24  0 17  Z " fill-rule="nonzero" fill="#ff3399" stroke="none" fill-opacity="0.0980392156862745" transform="matrix(1 0 0 1 741 256 )" />
    <path d="M 0 17  L 0 4  C 0 1.75999999999999  0.939211136890946 0  2.13457076566125 0  L 45.3596287703016 0  L 227.865429234339 0  C 229.060788863109 0  230 1.75999999999999  230 4  L 230 17  C 230 19.24  229.060788863109 21  227.865429234339 21  L 2.13457076566125 21  C 0.939211136890946 21  0 19.24  0 17  Z " stroke-width="2" stroke-dasharray="9,4" stroke="#ff3399" fill="none" transform="matrix(1 0 0 1 741 256 )" mask="url(#clip6)" />
  </g>
</svg>