<?xml version="1.0" encoding="utf-8"?>
<svg version="1.1" xmlns:xlink="http://www.w3.org/1999/xlink" width="27px" height="25px" xmlns="http://www.w3.org/2000/svg">
  <g transform="matrix(1 0 0 1 -872 -134 )">
    <path d="M 6.23076923076923 18.75  L 6.23076923076923 23  L 20.7692307692308 23  L 20.7692307692308 18.75  L 6.23076923076923 18.75  Z M 6.23076923076923 2  L 6.23076923076923 12.5  L 20.7692307692308 12.5  L 20.7692307692308 6.25  L 18.1730769230769 6.25  C 17.7403846153846 6.25  17.3725961538462 6.09809027777778  17.0697115384615 5.79427083333333  C 16.7668269230769 5.49045138888889  16.6153846153846 5.12152777777778  16.6153846153846 4.6875  L 16.6153846153846 2  L 6.23076923076923 2  Z M 24.6147836538462 14.2740885416667  C 24.8203125 14.0679253472222  24.9230769230769 13.8237847222222  24.9230769230769 13.5416666666667  C 24.9230769230769 13.2595486111111  24.8203125 13.0154079861111  24.6147836538462 12.8092447916667  C 24.4092548076923 12.6030815972222  24.1658653846154 12.5  23.8846153846154 12.5  C 23.6033653846154 12.5  23.3599759615385 12.6030815972222  23.1544471153846 12.8092447916667  C 22.9489182692308 13.0154079861111  22.8461538461538 13.2595486111111  22.8461538461538 13.5416666666667  C 22.8461538461538 13.8237847222222  22.9489182692308 14.0679253472222  23.1544471153846 14.2740885416667  C 23.3599759615385 14.4802517361111  23.6033653846154 14.5833333333333  23.8846153846154 14.5833333333333  C 24.1658653846154 14.5833333333333  24.4092548076923 14.4802517361111  24.6147836538462 14.2740885416667  Z M 26.0832331730769 11.3362630208333  C 26.6944110576923 11.9493272569444  27 12.6844618055556  27 13.5416666666667  L 27 20.3125  C 27 20.4535590277778  26.9486177884615 20.5756293402778  26.8458533653846 20.6787109375  C 26.7430889423077 20.7817925347222  26.6213942307692 20.8333333333333  26.4807692307692 20.8333333333333  L 22.8461538461538 20.8333333333333  L 22.8461538461538 23.4375  C 22.8461538461538 23.8715277777778  22.6947115384615 24.2404513888889  22.3918269230769 24.5442708333333  C 22.0889423076923 24.8480902777778  21.7211538461538 25  21.2884615384615 25  L 5.71153846153846 25  C 5.27884615384615 25  4.91105769230769 24.8480902777778  4.60817307692308 24.5442708333333  C 4.30528846153846 24.2404513888889  4.15384615384615 23.8715277777778  4.15384615384615 23.4375  L 4.15384615384615 20.8333333333333  L 0.519230769230769 20.8333333333333  C 0.378605769230769 20.8333333333333  0.256911057692308 20.7817925347222  0.154146634615385 20.6787109375  C 0.0513822115384615 20.5756293402778  0 20.4535590277778  0 20.3125  L 0 13.5416666666667  C 0 12.6844618055556  0.305588942307692 11.9493272569444  0.916766826923077 11.3362630208333  C 1.52794471153846 10.7231987847222  2.26081730769231 10.4166666666667  3.11538461538462 10.4166666666667  L 4.15384615384615 10.4166666666667  L 4.15384615384615 1.5625  C 4.15384615384615 1.12847222222222  4.30528846153846 0.759548611111108  4.60817307692308 0.455729166666666  C 4.91105769230769 0.151909722222221  5.27884615384615 0  5.71153846153846 0  L 16.6153846153846 0  C 17.0480769230769 0  17.5240384615385 0.108506944444442  18.0432692307692 0.325520833333334  C 18.5625 0.542534722222221  18.9735576923077 0.802951388888887  19.2764423076923 1.10677083333333  L 21.7427884615385 3.58072916666667  C 22.0456730769231 3.88454861111111  22.3052884615385 4.296875  22.5216346153846 4.81770833333333  C 22.7379807692308 5.33854166666667  22.8461538461538 5.81597222222222  22.8461538461538 6.25  L 22.8461538461538 10.4166666666667  L 23.8846153846154 10.4166666666667  C 24.7391826923077 10.4166666666667  25.4720552884615 10.7231987847222  26.0832331730769 11.3362630208333  Z " fill-rule="nonzero" fill="#000000" stroke="none" transform="matrix(1 0 0 1 872 134 )" />
  </g>
</svg>