<?xml version="1.0" encoding="utf-8"?>
<svg version="1.1" xmlns:xlink="http://www.w3.org/1999/xlink" width="431px" height="30px" xmlns="http://www.w3.org/2000/svg">
  <g transform="matrix(1 0 0 1 -123 -56 )">
    <path d="M 124 60  A 3 3 0 0 1 127 57 L 550 57  A 3 3 0 0 1 553 60 L 553 82  A 3 3 0 0 1 550 85 L 127 85  A 3 3 0 0 1 124 82 L 124 60  Z " fill-rule="nonzero" fill="#ff3399" stroke="none" fill-opacity="0.0980392156862745" />
    <path d="M 123.5 60  A 3.5 3.5 0 0 1 127 56.5 L 550 56.5  A 3.5 3.5 0 0 1 553.5 60 L 553.5 82  A 3.5 3.5 0 0 1 550 85.5 L 127 85.5  A 3.5 3.5 0 0 1 123.5 82 L 123.5 60  Z " stroke-width="1" stroke-dasharray="9,4" stroke="#ff3399" fill="none" stroke-dashoffset="0.5" />
  </g>
</svg>