<?xml version="1.0" encoding="utf-8"?>
<svg version="1.1" xmlns:xlink="http://www.w3.org/1999/xlink" width="19px" height="17px" xmlns="http://www.w3.org/2000/svg">
  <g transform="matrix(1 0 0 1 -797 -355 )">
    <path d="M 4.38461538461539 12.75  L 4.38461538461539 15.5833333333333  L 14.6153846153846 15.5833333333333  L 14.6153846153846 12.75  L 4.38461538461539 12.75  Z M 4.38461538461539 1.41666666666667  L 4.38461538461539 8.5  L 14.6153846153846 8.5  L 14.6153846153846 4.25  L 12.7884615384615 4.25  C 12.4839743589744 4.25  12.2251602564103 4.14670138888889  12.0120192307692 3.94010416666667  C 11.7988782051282 3.73350694444444  11.6923076923077 3.48263888888889  11.6923076923077 3.1875  L 11.6923076923077 1.41666666666667  L 4.38461538461539 1.41666666666667  Z M 17.3215144230769 9.70638020833333  C 17.4661458333333 9.56618923611111  17.5384615384615 9.40017361111111  17.5384615384615 9.20833333333333  C 17.5384615384615 9.01649305555556  17.4661458333333 8.85047743055556  17.3215144230769 8.71028645833333  C 17.1768830128205 8.57009548611111  17.005608974359 8.5  16.8076923076923 8.5  C 16.6097756410256 8.5  16.4385016025641 8.57009548611111  16.2938701923077 8.71028645833333  C 16.1492387820513 8.85047743055556  16.0769230769231 9.01649305555556  16.0769230769231 9.20833333333333  C 16.0769230769231 9.40017361111111  16.1492387820513 9.56618923611111  16.2938701923077 9.70638020833333  C 16.4385016025641 9.84657118055556  16.6097756410256 9.91666666666667  16.8076923076923 9.91666666666667  C 17.005608974359 9.91666666666667  17.1768830128205 9.84657118055556  17.3215144230769 9.70638020833333  Z M 18.3548677884615 7.70865885416667  C 18.7849559294872 8.12554253472222  19 8.62543402777778  19 9.20833333333333  L 19 13.8125  C 19 13.9084201388889  18.9638421474359 13.9914279513889  18.8915264423077 14.0615234375  C 18.8192107371795 14.1316189236111  18.7335737179487 14.1666666666667  18.6346153846154 14.1666666666667  L 16.0769230769231 14.1666666666667  L 16.0769230769231 15.9375  C 16.0769230769231 16.2326388888889  15.9703525641026 16.4835069444444  15.7572115384615 16.6901041666667  C 15.5440705128205 16.8967013888889  15.2852564102564 17  14.9807692307692 17  L 4.01923076923077 17  C 3.71474358974359 17  3.45592948717949 16.8967013888889  3.24278846153846 16.6901041666667  C 3.02964743589744 16.4835069444444  2.92307692307692 16.2326388888889  2.92307692307692 15.9375  L 2.92307692307692 14.1666666666667  L 0.365384615384615 14.1666666666667  C 0.266426282051282 14.1666666666667  0.180789262820513 14.1316189236111  0.108473557692308 14.0615234375  C 0.0361578525641026 13.9914279513889  0 13.9084201388889  0 13.8125  L 0 9.20833333333333  C 0 8.62543402777778  0.215044070512821 8.12554253472222  0.645132211538461 7.70865885416667  C 1.0752203525641 7.29177517361111  1.59094551282051 7.08333333333333  2.19230769230769 7.08333333333333  L 2.92307692307692 7.08333333333333  L 2.92307692307692 1.0625  C 2.92307692307692 0.76736111111111  3.02964743589744 0.516493055555553  3.24278846153846 0.309895833333333  C 3.45592948717949 0.10329861111111  3.71474358974359 0  4.01923076923077 0  L 11.6923076923077 0  C 11.9967948717949 0  12.3317307692308 0.0737847222222205  12.6971153846154 0.221354166666667  C 13.0625 0.36892361111111  13.3517628205128 0.546006944444443  13.5649038461538 0.752604166666667  L 15.3004807692308 2.43489583333333  C 15.5136217948718 2.64149305555555  15.6963141025641 2.921875  15.8485576923077 3.27604166666667  C 16.0008012820513 3.63020833333333  16.0769230769231 3.95486111111111  16.0769230769231 4.25  L 16.0769230769231 7.08333333333333  L 16.8076923076923 7.08333333333333  C 17.4090544871795 7.08333333333333  17.9247796474359 7.29177517361111  18.3548677884615 7.70865885416667  Z " fill-rule="nonzero" fill="#000000" stroke="none" transform="matrix(1 0 0 1 797 355 )" />
  </g>
</svg>