<?xml version="1.0" encoding="utf-8"?>
<svg version="1.1" xmlns:xlink="http://www.w3.org/1999/xlink" width="309px" height="42px" xmlns="http://www.w3.org/2000/svg">
  <g transform="matrix(1 0 0 1 -356 -14 )">
    <path d="M 357 18  A 3 3 0 0 1 360 15 L 661 15  A 3 3 0 0 1 664 18 L 664 52  A 3 3 0 0 1 661 55 L 360 55  A 3 3 0 0 1 357 52 L 357 18  Z " fill-rule="nonzero" fill="#ff3399" stroke="none" fill-opacity="0.0980392156862745" />
    <path d="M 356.5 18  A 3.5 3.5 0 0 1 360 14.5 L 661 14.5  A 3.5 3.5 0 0 1 664.5 18 L 664.5 52  A 3.5 3.5 0 0 1 661 55.5 L 360 55.5  A 3.5 3.5 0 0 1 356.5 52 L 356.5 18  Z " stroke-width="1" stroke-dasharray="9,4" stroke="#ff3399" fill="none" stroke-dashoffset="0.5" />
  </g>
</svg>