<?xml version="1.0" encoding="utf-8"?>
<svg version="1.1" xmlns:xlink="http://www.w3.org/1999/xlink" width="462px" height="256px" xmlns="http://www.w3.org/2000/svg">
  <defs>
    <mask fill="white" id="clip5">
      <path d="M 6.19178082191781 21  L 40.6489715952551 21  L 60.0602739726027 0  L 79.4666073265303 21  L 445.808219178082 21  C 449.275616438356 20.7733333333333  452 23.1786666666667  452 26.24  L 452 240.533333333333  C 452 243.594666666667  449.275616438356 246  445.808219178082 246  L 6.19178082191781 246  C 2.72438356164382 246  0 243.594666666667  0 240.533333333333  L 0 26.24  C 0 23.1786666666667  2.72438356164382 20.7733333333333  6.19178082191781 21  Z " fill-rule="evenodd" />
    </mask>
    <filter x="2320px" y="1097px" width="462px" height="256px" filterUnits="userSpaceOnUse" id="filter6">
      <feOffset dx="5" dy="5" in="SourceAlpha" result="shadowOffsetInner" />
      <feGaussianBlur stdDeviation="2.5" in="shadowOffsetInner" result="shadowGaussian" />
      <feComposite in2="shadowGaussian" operator="atop" in="SourceAlpha" result="shadowComposite" />
      <feColorMatrix type="matrix" values="0 0 0 0 0  0 0 0 0 0  0 0 0 0 0  0 0 0 0.349019607843137 0  " in="shadowComposite" />
    </filter>
    <g id="widget7">
      <path d="M 6.19178082191781 21  L 40.6489715952551 21  L 60.0602739726027 0  L 79.4666073265303 21  L 445.808219178082 21  C 449.275616438356 20.7733333333333  452 23.1786666666667  452 26.24  L 452 240.533333333333  C 452 243.594666666667  449.275616438356 246  445.808219178082 246  L 6.19178082191781 246  C 2.72438356164382 246  0 243.594666666667  0 240.533333333333  L 0 26.24  C 0 23.1786666666667  2.72438356164382 20.7733333333333  6.19178082191781 21  Z " fill-rule="nonzero" fill="#ffffff" stroke="none" transform="matrix(1 0 0 1 2320 1097 )" />
      <path d="M 6.19178082191781 21  L 40.6489715952551 21  L 60.0602739726027 0  L 79.4666073265303 21  L 445.808219178082 21  C 449.275616438356 20.7733333333333  452 23.1786666666667  452 26.24  L 452 240.533333333333  C 452 243.594666666667  449.275616438356 246  445.808219178082 246  L 6.19178082191781 246  C 2.72438356164382 246  0 243.594666666667  0 240.533333333333  L 0 26.24  C 0 23.1786666666667  2.72438356164382 20.7733333333333  6.19178082191781 21  Z " stroke-width="2" stroke="#d7d7d7" fill="none" transform="matrix(1 0 0 1 2320 1097 )" mask="url(#clip5)" />
    </g>
  </defs>
  <g transform="matrix(1 0 0 1 -2320 -1097 )">
    <use xlink:href="#widget7" filter="url(#filter6)" />
    <use xlink:href="#widget7" />
  </g>
</svg>