<?xml version="1.0" encoding="utf-8"?>
<svg version="1.1" xmlns:xlink="http://www.w3.org/1999/xlink" width="163px" height="67px" xmlns="http://www.w3.org/2000/svg">
  <g transform="matrix(1 0 0 1 -140 -542 )">
    <path d="M 141 546  A 3 3 0 0 1 144 543 L 299 543  A 3 3 0 0 1 302 546 L 302 605  A 3 3 0 0 1 299 608 L 144 608  A 3 3 0 0 1 141 605 L 141 546  Z " fill-rule="nonzero" fill="#ff3399" stroke="none" fill-opacity="0.0980392156862745" />
    <path d="M 140.5 546  A 3.5 3.5 0 0 1 144 542.5 L 299 542.5  A 3.5 3.5 0 0 1 302.5 546 L 302.5 605  A 3.5 3.5 0 0 1 299 608.5 L 144 608.5  A 3.5 3.5 0 0 1 140.5 605 L 140.5 546  Z " stroke-width="1" stroke-dasharray="9,4" stroke="#ff3399" fill="none" stroke-dashoffset="0.5" />
  </g>
</svg>