<?xml version="1.0" encoding="utf-8"?>
<svg version="1.1" xmlns:xlink="http://www.w3.org/1999/xlink" width="42px" height="22px" xmlns="http://www.w3.org/2000/svg">
  <g transform="matrix(1 0 0 1 -472 -257 )">
    <path d="M 41.78125 7.5812743823147  C 41.9270833333333 7.75292587776333  42 7.97225834416992  42 8.23927178153446  L 42 13.7321196358908  C 42 13.9991330732553  41.9270833333333 14.2184655396619  41.78125 14.3901170351105  C 41.6354166666667 14.5617685305592  41.4490740740741 14.6475942782835  41.2222222222222 14.6475942782835  L 10.8888888888889 14.6475942782835  L 10.8888888888889 21.0559167750325  C 10.8888888888889 21.4564369310793  10.7349537037037 21.7329865626355  10.4270833333333 21.8855656697009  C 10.119212962963 22.0381447767664  9.83564814814815 21.9904638058084  9.57638888888889 21.742522756827  L 0.243055555555556 11.7295188556567  C 0.0810185185185188 11.5387949718249  0 11.3194625054183  0 11.0715214564369  C 0 10.8045080190724  0.0810185185185188 10.5756393584742  0.243055555555556 10.3849154746424  L 9.57638888888889 0.257477243172952  C 9.83564814814815 -0.00953619419159635  10.119212962963 -0.0667533593411402  10.4270833333333 0.0858257477243183  C 10.7349537037037 0.257477243172952  10.8888888888889 0.534026874729085  10.8888888888889 0.915474642392717  L 10.8888888888889 7.32379713914174  L 41.2222222222222 7.32379713914174  C 41.4490740740741 7.32379713914174  41.6354166666667 7.40962288686606  41.78125 7.5812743823147  Z " fill-rule="nonzero" fill="#169bd5" stroke="none" transform="matrix(1 0 0 1 472 257 )" />
  </g>
</svg>