<?xml version="1.0" encoding="utf-8"?>
<svg version="1.1" xmlns:xlink="http://www.w3.org/1999/xlink" width="206px" height="21px" xmlns="http://www.w3.org/2000/svg">
  <defs>
    <mask fill="white" id="clip19">
      <path d="M 0 17  L 0 4  C 0 1.75999999999999  0.841206496519717 0  1.91183294663573 0  L 40.6264501160093 0  L 204.088167053364 0  C 205.15879350348 0  206 1.75999999999999  206 4  L 206 17  C 206 19.24  205.15879350348 21  204.088167053364 21  L 1.91183294663573 21  C 0.841206496519717 21  0 19.24  0 17  Z " fill-rule="evenodd" />
    </mask>
  </defs>
  <g transform="matrix(1 0 0 1 -688 -256 )">
    <path d="M 0 17  L 0 4  C 0 1.75999999999999  0.841206496519717 0  1.91183294663573 0  L 40.6264501160093 0  L 204.088167053364 0  C 205.15879350348 0  206 1.75999999999999  206 4  L 206 17  C 206 19.24  205.15879350348 21  204.088167053364 21  L 1.91183294663573 21  C 0.841206496519717 21  0 19.24  0 17  Z " fill-rule="nonzero" fill="#ff3399" stroke="none" fill-opacity="0.0980392156862745" transform="matrix(1 0 0 1 688 256 )" />
    <path d="M 0 17  L 0 4  C 0 1.75999999999999  0.841206496519717 0  1.91183294663573 0  L 40.6264501160093 0  L 204.088167053364 0  C 205.15879350348 0  206 1.75999999999999  206 4  L 206 17  C 206 19.24  205.15879350348 21  204.088167053364 21  L 1.91183294663573 21  C 0.841206496519717 21  0 19.24  0 17  Z " stroke-width="2" stroke-dasharray="9,4" stroke="#ff3399" fill="none" transform="matrix(1 0 0 1 688 256 )" mask="url(#clip19)" />
  </g>
</svg>