<?xml version="1.0" encoding="utf-8"?>
<svg version="1.1" xmlns:xlink="http://www.w3.org/1999/xlink" width="208px" height="120px" xmlns="http://www.w3.org/2000/svg">
  <g transform="matrix(1 0 0 1 -95 -122 )">
    <path d="M 96 127  A 4 4 0 0 1 100 123 L 298 123  A 4 4 0 0 1 302 127 L 302 237  A 4 4 0 0 1 298 241 L 100 241  A 4 4 0 0 1 96 237 L 96 127  Z " fill-rule="nonzero" fill="#ffffff" stroke="none" />
    <path d="M 95.5 127  A 4.5 4.5 0 0 1 100 122.5 L 298 122.5  A 4.5 4.5 0 0 1 302.5 127 L 302.5 237  A 4.5 4.5 0 0 1 298 241.5 L 100 241.5  A 4.5 4.5 0 0 1 95.5 237 L 95.5 127  Z " stroke-width="1" stroke-dasharray="9,4" stroke="#d7d7d7" fill="none" stroke-dashoffset="0.5" />
  </g>
</svg>