<?xml version="1.0" encoding="utf-8"?>
<svg version="1.1" xmlns:xlink="http://www.w3.org/1999/xlink" width="12px" height="12px" viewBox="695 1200  12 12" xmlns="http://www.w3.org/2000/svg">
  <path d="M 701 1200  C 704.36 1200  707 1202.64  707 1206  C 707 1209.36  704.36 1212  701 1212  C 697.64 1212  695 1209.36  695 1206  C 695 1202.64  697.64 1200  701 1200  Z " fill-rule="nonzero" fill="#f0f0f0" stroke="none" />
  <path d="M 701 1200.5  C 704.08 1200.5  706.5 1202.92  706.5 1206  C 706.5 1209.08  704.08 1211.5  701 1211.5  C 697.92 1211.5  695.5 1209.08  695.5 1206  C 695.5 1202.92  697.92 1200.5  701 1200.5  Z " stroke-width="1" stroke="#797979" fill="none" />
  <path d="M 701 1209  C 699.32 1209  698 1207.68  698 1206  C 698 1204.32  699.32 1203  701 1203  C 702.68 1203  704 1204.32  704 1206  C 704 1207.68  702.68 1209  701 1209  " fill-rule="nonzero" fill="#797979" stroke="none" />
</svg>