<?xml version="1.0" encoding="utf-8"?>
<svg version="1.1" xmlns:xlink="http://www.w3.org/1999/xlink" width="12px" height="12px" viewBox="695 1119  12 12" xmlns="http://www.w3.org/2000/svg">
  <path d="M 701 1119  C 704.36 1119  707 1121.64  707 1125  C 707 1128.36  704.36 1131  701 1131  C 697.64 1131  695 1128.36  695 1125  C 695 1121.64  697.64 1119  701 1119  Z " fill-rule="nonzero" fill="#f0f0f0" stroke="none" />
  <path d="M 701 1119.5  C 704.08 1119.5  706.5 1121.92  706.5 1125  C 706.5 1128.08  704.08 1130.5  701 1130.5  C 697.92 1130.5  695.5 1128.08  695.5 1125  C 695.5 1121.92  697.92 1119.5  701 1119.5  Z " stroke-width="1" stroke="#797979" fill="none" />
  <path d="M 701 1128  C 699.32 1128  698 1126.68  698 1125  C 698 1123.32  699.32 1122  701 1122  C 702.68 1122  704 1123.32  704 1125  C 704 1126.68  702.68 1128  701 1128  " fill-rule="nonzero" fill="#797979" stroke="none" />
</svg>