<?xml version="1.0" encoding="utf-8"?>
<svg version="1.1" xmlns:xlink="http://www.w3.org/1999/xlink" width="236px" height="155px" xmlns="http://www.w3.org/2000/svg">
  <g transform="matrix(1 0 0 1 -1580 -280 )">
    <path d="M 1581 284  A 3 3 0 0 1 1584 281 L 1812 281  A 3 3 0 0 1 1815 284 L 1815 431  A 3 3 0 0 1 1812 434 L 1584 434  A 3 3 0 0 1 1581 431 L 1581 284  Z " fill-rule="nonzero" fill="#ff3399" stroke="none" fill-opacity="0.0980392156862745" />
    <path d="M 1580.5 284  A 3.5 3.5 0 0 1 1584 280.5 L 1812 280.5  A 3.5 3.5 0 0 1 1815.5 284 L 1815.5 431  A 3.5 3.5 0 0 1 1812 434.5 L 1584 434.5  A 3.5 3.5 0 0 1 1580.5 431 L 1580.5 284  Z " stroke-width="1" stroke-dasharray="9,4" stroke="#ff3399" fill="none" stroke-dashoffset="0.5" />
  </g>
</svg>