<?xml version="1.0" encoding="utf-8"?>
<svg version="1.1" xmlns:xlink="http://www.w3.org/1999/xlink" width="88px" height="88px" xmlns="http://www.w3.org/2000/svg">
  <g transform="matrix(1 0 0 1 -2077 -286 )">
    <path d="M 2121 286  C 2145.64 286  2165 305.36  2165 330  C 2165 354.64  2145.64 374  2121 374  C 2096.36 374  2077 354.64  2077 330  C 2077 305.36  2096.36 286  2121 286  Z " fill-rule="nonzero" fill="#ffffff" stroke="none" />
    <path d="M 2121 286.5  C 2145.36 286.5  2164.5 305.64  2164.5 330  C 2164.5 354.36  2145.36 373.5  2121 373.5  C 2096.64 373.5  2077.5 354.36  2077.5 330  C 2077.5 305.64  2096.64 286.5  2121 286.5  Z " stroke-width="1" stroke="#d7d7d7" fill="none" />
  </g>
</svg>