<?xml version="1.0" encoding="utf-8"?>
<svg version="1.1" xmlns:xlink="http://www.w3.org/1999/xlink" width="26px" height="26px" xmlns="http://www.w3.org/2000/svg">
  <g transform="matrix(1 0 0 1 -397 -580 )">
    <path d="M 14.625 21.7682291666667  C 14.9184027777778 21.7682291666667  15.1723090277778 21.6610243055556  15.38671875 21.4466145833333  L 17.11328125 19.7200520833333  C 17.3276909722222 19.5056423611111  17.4348958333333 19.2517361111111  17.4348958333333 18.9583333333333  C 17.4348958333333 18.6649305555556  17.3276909722222 18.4110243055556  17.11328125 18.1966145833333  L 11.9166666666667 13  L 17.11328125 7.80338541666667  C 17.3276909722222 7.58897569444444  17.4348958333333 7.33506944444444  17.4348958333333 7.04166666666667  C 17.4348958333333 6.74826388888889  17.3276909722222 6.49435763888889  17.11328125 6.27994791666667  L 15.38671875 4.55338541666667  C 15.1723090277778 4.33897569444444  14.9184027777778 4.23177083333333  14.625 4.23177083333333  C 14.3315972222222 4.23177083333333  14.0776909722222 4.33897569444444  13.86328125 4.55338541666667  L 6.17838541666667 12.23828125  C 5.96397569444444 12.4526909722222  5.85677083333333 12.7065972222222  5.85677083333333 13  C 5.85677083333333 13.2934027777778  5.96397569444444 13.5473090277778  6.17838541666667 13.76171875  L 13.86328125 21.4466145833333  C 14.0776909722222 21.6610243055556  14.3315972222222 21.7682291666667  14.625 21.7682291666667  Z M 24.2565104166667 6.474609375  C 25.4188368055556 8.46636284722222  26 10.6414930555556  26 13  C 26 15.3585069444444  25.4188368055556 17.5336371527778  24.2565104166667 19.525390625  C 23.0941840277778 21.5171440972222  21.5171440972222 23.0941840277778  19.525390625 24.2565104166667  C 17.5336371527778 25.4188368055556  15.3585069444444 26  13 26  C 10.6414930555556 26  8.46636284722222 25.4188368055556  6.474609375 24.2565104166667  C 4.48285590277778 23.0941840277778  2.90581597222222 21.5171440972222  1.74348958333333 19.525390625  C 0.581163194444444 17.5336371527778  0 15.3585069444444  0 13  C 0 10.6414930555556  0.581163194444444 8.46636284722222  1.74348958333333 6.474609375  C 2.90581597222222 4.48285590277778  4.48285590277778 2.90581597222222  6.474609375 1.74348958333333  C 8.46636284722222 0.581163194444442  10.6414930555556 0  13 0  C 15.3585069444444 0  17.5336371527778 0.581163194444442  19.525390625 1.74348958333333  C 21.5171440972222 2.90581597222222  23.0941840277778 4.48285590277778  24.2565104166667 6.474609375  Z " fill-rule="nonzero" fill="#000000" stroke="none" fill-opacity="0.4" transform="matrix(1 0 0 1 397 580 )" />
  </g>
</svg>