<?xml version="1.0" encoding="utf-8"?>
<svg version="1.1" xmlns:xlink="http://www.w3.org/1999/xlink" width="30px" height="19px" xmlns="http://www.w3.org/2000/svg">
  <g transform="matrix(1 0 0 1 -10 -13 )">
    <path d="M 29.6993987975952 15.5395189003436  C 29.8997995991984 15.7571592210767  30 16.0074455899198  30 16.2903780068729  C 30 16.5733104238259  29.8997995991984 16.823596792669  29.6993987975952 17.0412371134021  L 28.1963927855711 18.6735395189003  C 27.9959919839679 18.8911798396334  27.7655310621243 19  27.5050100200401 19  C 27.2444889779559 19  27.0140280561122 18.8911798396334  26.813627254509 18.6735395189003  L 15 5.84364261168385  L 3.18637274549098 18.6735395189003  C 2.98597194388778 18.8911798396334  2.75551102204409 19  2.49498997995992 19  C 2.23446893787575 19  2.00400801603206 18.8911798396334  1.80360721442886 18.6735395189003  L 0.30060120240481 17.0412371134021  C 0.100200400801604 16.823596792669  0 16.5733104238259  0 16.2903780068729  C 0 16.0074455899198  0.100200400801604 15.7571592210767  0.30060120240481 15.5395189003436  L 14.3086172344689 0.326460481099657  C 14.5090180360721 0.10882016036655  14.7394789579158 0  15 0  C 15.2605210420842 0  15.4909819639279 0.10882016036655  15.6913827655311 0.326460481099657  L 29.6993987975952 15.5395189003436  Z " fill-rule="nonzero" fill="#f2f2f2" stroke="none" transform="matrix(1 0 0 1 10 13 )" />
  </g>
</svg>