<?xml version="1.0" encoding="utf-8"?>
<svg version="1.1" xmlns:xlink="http://www.w3.org/1999/xlink" width="30px" height="19px" xmlns="http://www.w3.org/2000/svg">
  <g transform="matrix(1 0 0 1 -10 -83 )">
    <path d="M 29.6993987975952 1.95876288659794  C 29.8997995991984 2.17640320733104  30 2.42668957617411  30 2.70962199312715  C 30 2.99255441008018  29.8997995991984 3.24284077892325  29.6993987975952 3.46048109965636  L 15.6913827655311 18.6735395189003  C 15.4909819639279 18.8911798396334  15.2605210420842 19  15 19  C 14.7394789579158 19  14.5090180360721 18.8911798396334  14.3086172344689 18.6735395189003  L 0.30060120240481 3.46048109965636  C 0.100200400801604 3.24284077892325  0 2.99255441008018  0 2.70962199312715  C 0 2.42668957617411  0.100200400801604 2.17640320733104  0.30060120240481 1.95876288659794  L 1.80360721442886 0.326460481099657  C 2.00400801603206 0.10882016036655  2.23446893787575 0  2.49498997995992 0  C 2.75551102204409 0  2.98597194388778 0.10882016036655  3.18637274549098 0.326460481099657  L 15 13.1563573883162  L 26.813627254509 0.326460481099657  C 27.0140280561122 0.10882016036655  27.2444889779559 0  27.5050100200401 0  C 27.7655310621243 0  27.9959919839679 0.10882016036655  28.1963927855711 0.326460481099657  L 29.6993987975952 1.95876288659794  Z " fill-rule="nonzero" fill="#f2f2f2" stroke="none" transform="matrix(1 0 0 1 10 83 )" />
  </g>
</svg>