<?xml version="1.0" encoding="utf-8"?>
<svg version="1.1" xmlns:xlink="http://www.w3.org/1999/xlink" width="365px" height="214px" xmlns="http://www.w3.org/2000/svg">
  <g transform="matrix(1 0 0 1 -690 -900 )">
    <path d="M 691 904  A 3 3 0 0 1 694 901 L 1051 901  A 3 3 0 0 1 1054 904 L 1054 1110  A 3 3 0 0 1 1051 1113 L 694 1113  A 3 3 0 0 1 691 1110 L 691 904  Z " fill-rule="nonzero" fill="#ff3399" stroke="none" fill-opacity="0.0980392156862745" />
    <path d="M 690.5 904  A 3.5 3.5 0 0 1 694 900.5 L 1051 900.5  A 3.5 3.5 0 0 1 1054.5 904 L 1054.5 1110  A 3.5 3.5 0 0 1 1051 1113.5 L 694 1113.5  A 3.5 3.5 0 0 1 690.5 1110 L 690.5 904  Z " stroke-width="1" stroke-dasharray="9,4" stroke="#ff3399" fill="none" stroke-dashoffset="0.5" />
  </g>
</svg>