<?xml version="1.0" encoding="utf-8"?>
<svg version="1.1" xmlns:xlink="http://www.w3.org/1999/xlink" width="240px" height="153px" xmlns="http://www.w3.org/2000/svg">
  <g transform="matrix(1 0 0 1 -352 -900 )">
    <path d="M 353 904  A 3 3 0 0 1 356 901 L 588 901  A 3 3 0 0 1 591 904 L 591 1049  A 3 3 0 0 1 588 1052 L 356 1052  A 3 3 0 0 1 353 1049 L 353 904  Z " fill-rule="nonzero" fill="#ff3399" stroke="none" fill-opacity="0.0980392156862745" />
    <path d="M 352.5 904  A 3.5 3.5 0 0 1 356 900.5 L 588 900.5  A 3.5 3.5 0 0 1 591.5 904 L 591.5 1049  A 3.5 3.5 0 0 1 588 1052.5 L 356 1052.5  A 3.5 3.5 0 0 1 352.5 1049 L 352.5 904  Z " stroke-width="1" stroke-dasharray="9,4" stroke="#ff3399" fill="none" stroke-dashoffset="0.5" />
  </g>
</svg>