<?xml version="1.0" encoding="utf-8"?>
<svg version="1.1" xmlns:xlink="http://www.w3.org/1999/xlink" width="431px" height="21px" xmlns="http://www.w3.org/2000/svg">
  <defs>
    <mask fill="white" id="clip16">
      <path d="M 0 17  L 0 4  C 0 1.75999999999999  1.75999999999999 0  4 0  L 85 0  L 427 0  C 429.24 0  431 1.75999999999999  431 4  L 431 17  C 431 19.24  429.24 21  427 21  L 4 21  C 1.75999999999999 21  0 19.24  0 17  Z " fill-rule="evenodd" />
    </mask>
  </defs>
  <g transform="matrix(1 0 0 1 -718 -253 )">
    <path d="M 0 17  L 0 4  C 0 1.75999999999999  1.75999999999999 0  4 0  L 85 0  L 427 0  C 429.24 0  431 1.75999999999999  431 4  L 431 17  C 431 19.24  429.24 21  427 21  L 4 21  C 1.75999999999999 21  0 19.24  0 17  Z " fill-rule="nonzero" fill="#ff3399" stroke="none" fill-opacity="0.0980392156862745" transform="matrix(1 0 0 1 718 253 )" />
    <path d="M 0 17  L 0 4  C 0 1.75999999999999  1.75999999999999 0  4 0  L 85 0  L 427 0  C 429.24 0  431 1.75999999999999  431 4  L 431 17  C 431 19.24  429.24 21  427 21  L 4 21  C 1.75999999999999 21  0 19.24  0 17  Z " stroke-width="2" stroke-dasharray="9,4" stroke="#ff3399" fill="none" transform="matrix(1 0 0 1 718 253 )" mask="url(#clip16)" />
  </g>
</svg>