<?xml version="1.0" encoding="utf-8"?>
<svg version="1.1" xmlns:xlink="http://www.w3.org/1999/xlink" width="12px" height="12px" viewBox="337 1311.5  12 12" xmlns="http://www.w3.org/2000/svg">
  <path d="M 343 1311.5  C 346.36 1311.5  349 1314.14  349 1317.5  C 349 1320.86  346.36 1323.5  343 1323.5  C 339.64 1323.5  337 1320.86  337 1317.5  C 337 1314.14  339.64 1311.5  343 1311.5  Z " fill-rule="nonzero" fill="#f0f0f0" stroke="none" />
  <path d="M 343 1312  C 346.08 1312  348.5 1314.42  348.5 1317.5  C 348.5 1320.58  346.08 1323  343 1323  C 339.92 1323  337.5 1320.58  337.5 1317.5  C 337.5 1314.42  339.92 1312  343 1312  Z " stroke-width="1" stroke="#797979" fill="none" />
  <path d="M 343 1320.5  C 341.32 1320.5  340 1319.18  340 1317.5  C 340 1315.82  341.32 1314.5  343 1314.5  C 344.68 1314.5  346 1315.82  346 1317.5  C 346 1319.18  344.68 1320.5  343 1320.5  " fill-rule="nonzero" fill="#797979" stroke="none" />
</svg>