<?xml version="1.0" encoding="utf-8"?>
<svg version="1.1" xmlns:xlink="http://www.w3.org/1999/xlink" width="12px" height="12px" viewBox="237 1311.5  12 12" xmlns="http://www.w3.org/2000/svg">
  <path d="M 243 1311.5  C 246.36 1311.5  249 1314.14  249 1317.5  C 249 1320.86  246.36 1323.5  243 1323.5  C 239.64 1323.5  237 1320.86  237 1317.5  C 237 1314.14  239.64 1311.5  243 1311.5  Z " fill-rule="nonzero" fill="#f0f0f0" stroke="none" />
  <path d="M 243 1312  C 246.08 1312  248.5 1314.42  248.5 1317.5  C 248.5 1320.58  246.08 1323  243 1323  C 239.92 1323  237.5 1320.58  237.5 1317.5  C 237.5 1314.42  239.92 1312  243 1312  Z " stroke-width="1" stroke="#797979" fill="none" />
  <path d="M 243 1320.5  C 241.32 1320.5  240 1319.18  240 1317.5  C 240 1315.82  241.32 1314.5  243 1314.5  C 244.68 1314.5  246 1315.82  246 1317.5  C 246 1319.18  244.68 1320.5  243 1320.5  " fill-rule="nonzero" fill="#797979" stroke="none" />
</svg>