<?xml version="1.0" encoding="utf-8"?>
<svg version="1.1" xmlns:xlink="http://www.w3.org/1999/xlink" width="25px" height="24px" xmlns="http://www.w3.org/2000/svg">
  <g transform="matrix(1 0 0 1 -118 -128 )">
    <path d="M 24.749498997996 11.0310559006211  C 24.9164996659987 11.1966873706004  25 11.3871635610766  25 11.6024844720497  C 25 11.8178053830228  24.9164996659987 12.008281573499  24.749498997996 12.1739130434783  L 13.0761523046092 23.7515527950311  C 12.9091516366065 23.9171842650104  12.7171008684035 24  12.5 24  C 12.2828991315965 24  12.0908483633935 23.9171842650104  11.9238476953908 23.7515527950311  L 0.250501002004008 12.1739130434783  C 0.0835003340013362 12.008281573499  0 11.8178053830228  0 11.6024844720497  C 0 11.3871635610766  0.0835003340013362 11.1966873706004  0.250501002004008 11.0310559006211  L 1.50300601202405 9.7888198757764  C 1.67000668002672 9.6231884057971  1.86205744822979 9.54037267080745  2.07915831663327 9.54037267080745  C 2.29625918503674 9.54037267080745  2.48830995323981 9.6231884057971  2.65531062124249 9.7888198757764  L 12.5 19.5527950310559  L 22.3446893787575 9.7888198757764  C 22.5116900467602 9.6231884057971  22.7037408149633 9.54037267080745  22.9208416833667 9.54037267080745  C 23.1379425517702 9.54037267080745  23.3299933199733 9.6231884057971  23.496993987976 9.7888198757764  L 24.749498997996 11.0310559006211  Z M 24.749498997996 1.49068322981366  C 24.9164996659987 1.65631469979296  25 1.84679089026915  25 2.06211180124224  C 25 2.27743271221532  24.9164996659987 2.46790890269151  24.749498997996 2.63354037267081  L 13.0761523046092 14.2111801242236  C 12.9091516366065 14.3768115942029  12.7171008684035 14.4596273291925  12.5 14.4596273291925  C 12.2828991315965 14.4596273291925  12.0908483633935 14.3768115942029  11.9238476953908 14.2111801242236  L 0.250501002004008 2.63354037267081  C 0.0835003340013362 2.46790890269151  0 2.27743271221532  0 2.06211180124224  C 0 1.84679089026915  0.0835003340013362 1.65631469979296  0.250501002004008 1.49068322981366  L 1.50300601202405 0.248447204968944  C 1.67000668002672 0.0828157349896461  1.86205744822979 0  2.07915831663327 0  C 2.29625918503674 0  2.48830995323981 0.0828157349896461  2.65531062124249 0.248447204968944  L 12.5 10.0124223602484  L 22.3446893787575 0.248447204968944  C 22.5116900467602 0.0828157349896461  22.7037408149633 0  22.9208416833667 0  C 23.1379425517702 0  23.3299933199733 0.0828157349896461  23.496993987976 0.248447204968944  L 24.749498997996 1.49068322981366  Z " fill-rule="nonzero" fill="#027db4" stroke="none" fill-opacity="0.117647058823529" transform="matrix(1 0 0 1 118 128 )" />
  </g>
</svg>