<?xml version="1.0" encoding="utf-8"?>
<svg version="1.1" xmlns:xlink="http://www.w3.org/1999/xlink" width="180px" height="52px" xmlns="http://www.w3.org/2000/svg">
  <g transform="matrix(1 0 0 1 -660 -1528 )">
    <path d="M 661 1532  A 3 3 0 0 1 664 1529 L 836 1529  A 3 3 0 0 1 839 1532 L 839 1576  A 3 3 0 0 1 836 1579 L 664 1579  A 3 3 0 0 1 661 1576 L 661 1532  Z " fill-rule="nonzero" fill="#ff3399" stroke="none" fill-opacity="0.0980392156862745" />
    <path d="M 660.5 1532  A 3.5 3.5 0 0 1 664 1528.5 L 836 1528.5  A 3.5 3.5 0 0 1 839.5 1532 L 839.5 1576  A 3.5 3.5 0 0 1 836 1579.5 L 664 1579.5  A 3.5 3.5 0 0 1 660.5 1576 L 660.5 1532  Z " stroke-width="1" stroke-dasharray="9,4" stroke="#ff3399" fill="none" stroke-dashoffset="0.5" />
  </g>
</svg>