<?xml version="1.0" encoding="utf-8"?>
<svg version="1.1" xmlns:xlink="http://www.w3.org/1999/xlink" width="24px" height="24px" xmlns="http://www.w3.org/2000/svg">
  <g>
    <path d="M 12 18.59375  C 12.2708333333333 18.59375  12.5052083333333 18.4947916666667  12.703125 18.296875  L 19.796875 11.203125  C 19.9947916666667 11.0052083333333  20.09375 10.7708333333333  20.09375 10.5  C 20.09375 10.2291666666667  19.9947916666667 9.99479166666667  19.796875 9.796875  L 18.203125 8.203125  C 18.0052083333333 8.00520833333333  17.7708333333333 7.90625  17.5 7.90625  C 17.2291666666667 7.90625  16.9947916666667 8.00520833333333  16.796875 8.203125  L 12 13  L 7.203125 8.203125  C 7.00520833333333 8.00520833333333  6.77083333333333 7.90625  6.5 7.90625  C 6.22916666666667 7.90625  5.99479166666667 8.00520833333333  5.796875 8.203125  L 4.203125 9.796875  C 4.00520833333333 9.99479166666667  3.90625 10.2291666666667  3.90625 10.5  C 3.90625 10.7708333333333  4.00520833333333 11.0052083333333  4.203125 11.203125  L 11.296875 18.296875  C 11.4947916666667 18.4947916666667  11.7291666666667 18.59375  12 18.59375  Z M 22.390625 5.9765625  C 23.4635416666667 7.81510416666666  24 9.82291666666666  24 12  C 24 14.1770833333333  23.4635416666667 16.1848958333333  22.390625 18.0234375  C 21.3177083333333 19.8619791666667  19.8619791666667 21.3177083333333  18.0234375 22.390625  C 16.1848958333333 23.4635416666667  14.1770833333333 24  12 24  C 9.82291666666667 24  7.81510416666667 23.4635416666667  5.9765625 22.390625  C 4.13802083333333 21.3177083333333  2.68229166666667 19.8619791666667  1.609375 18.0234375  C 0.536458333333333 16.1848958333333  0 14.1770833333333  0 12  C 0 9.82291666666666  0.536458333333333 7.81510416666666  1.609375 5.9765625  C 2.68229166666667 4.13802083333333  4.13802083333333 2.68229166666666  5.9765625 1.609375  C 7.81510416666667 0.536458333333331  9.82291666666667 0  12 0  C 14.1770833333333 0  16.1848958333333 0.536458333333331  18.0234375 1.609375  C 19.8619791666667 2.68229166666666  21.3177083333333 4.13802083333333  22.390625 5.9765625  Z " fill-rule="nonzero" fill="#027db4" stroke="none" />
  </g>
</svg>