<?xml version="1.0" encoding="utf-8"?>
<svg version="1.1" xmlns:xlink="http://www.w3.org/1999/xlink" width="27px" height="27px" xmlns="http://www.w3.org/2000/svg">
  <g transform="matrix(1 0 0 1 -280 -510 )">
    <path d="M 27 13.5  C 27 21.06  21.06 27  13.5 27  C 5.94000000000002 27  0 21.06  0 13.5  C 0 5.94000000000002  5.94000000000002 0  13.5 0  C 21.06 0  27 5.94000000000002  27 13.5  Z M 17.8443080357143 5.33671875000001  C 17.5262276785714 4.99319196428574  17.1495535714286 4.82142857142857  16.7142857142857 4.82142857142857  L 10.2857142857143 4.82142857142857  C 9.85044642857142 4.82142857142857  9.47377232142857 4.99319196428574  9.15569196428573 5.33671875000001  C 8.83761160714285 5.68024553571429  8.67857142857143 6.08705357142857  9 6.55714285714287  L 9 20.4428571428572  C 8.67857142857143 20.9129464285714  8.83761160714285 21.3197544642857  9.15569196428573 21.66328125  C 9.47377232142857 22.0068080357143  9.85044642857142 22.1785714285714  10.2857142857143 22.1785714285714  L 16.7142857142857 22.1785714285714  C 17.1495535714286 22.1785714285714  17.5262276785714 22.0068080357143  17.8443080357143 21.66328125  C 18.1623883928572 21.3197544642857  18.3214285714286 20.9129464285714  18 20.4428571428572  L 18 6.55714285714287  C 18.3214285714286 6.08705357142857  18.1623883928572 5.68024553571429  17.8443080357143 5.33671875000001  Z M 14.2094029017857 21.2090122767857  C 14.0126953125 21.4214564732143  13.7762276785714 21.5276785714286  13.5 21.5276785714286  C 13.2237723214286 21.5276785714286  12.9873046875 21.4214564732143  12.7905970982143 21.2090122767857  C 12.5938895089285 20.9965680803572  12.4955357142857 20.7411830357143  12.4955357142857 20.4428571428572  C 12.4955357142857 20.14453125  12.5938895089285 19.8891462053572  12.7905970982143 19.6767020089285  C 12.9873046875 19.4642578125  13.2237723214286 19.3580357142858  13.5 19.3580357142858  C 13.7762276785714 19.3580357142858  14.0126953125 19.4642578125  14.2094029017857 19.6767020089285  C 14.4061104910715 19.8891462053572  14.5044642857143 20.14453125  14.5044642857143 20.4428571428572  C 14.5044642857143 20.7411830357143  14.4061104910715 20.9965680803572  14.2094029017857 21.2090122767857  Z M 16.9967912946428 18.5783203125  C 16.9172712053571 18.6642020089286  16.8231026785714 18.7071428571428  16.7142857142857 18.7071428571428  L 10.2857142857143 18.7071428571428  C 10.1768973214286 18.7071428571428  10.0827287946429 18.6642020089286  10.0032087053572 18.5783203125  C 9.92368861607145 18.4924386160714  9.88392857142857 18.3907366071428  9.88392857142857 18.2732142857143  L 9.88392857142857 8.72678571428573  C 9.88392857142857 8.60926339285716  9.92368861607145 8.50756138392859  10.0032087053572 8.42167968750001  C 10.0827287946429 8.33579799107143  10.1768973214286 8.29285714285716  10.2857142857143 8.29285714285716  L 16.7142857142857 8.29285714285716  C 16.8231026785714 8.29285714285716  16.9172712053571 8.33579799107143  16.9967912946428 8.42167968750001  C 17.0763113839285 8.50756138392859  17.1160714285714 8.60926339285716  17.1160714285714 8.72678571428573  L 17.1160714285714 18.2732142857143  C 17.1160714285714 18.3907366071428  17.0763113839285 18.4924386160714  16.9967912946428 18.5783203125  Z M 14.5044642857143 6.99107142857143  L 12.4955357142857 6.99107142857143  C 12.3616071428572 6.99107142857143  12.2946428571429 6.91875000000001  12.2946428571429 6.77410714285712  C 12.2946428571429 6.62946428571429  12.3616071428572 6.55714285714287  12.4955357142857 6.55714285714287  L 14.5044642857143 6.55714285714287  C 14.6383928571428 6.55714285714287  14.7053571428571 6.62946428571429  14.7053571428571 6.77410714285712  C 14.7053571428571 6.91875000000001  14.6383928571428 6.99107142857143  14.5044642857143 6.99107142857143  Z " fill-rule="nonzero" fill="#d9001b" stroke="none" transform="matrix(1 0 0 1 280 510 )" />
  </g>
</svg>