<?xml version="1.0" encoding="utf-8"?>
<svg version="1.1" xmlns:xlink="http://www.w3.org/1999/xlink" width="27px" height="27px" xmlns="http://www.w3.org/2000/svg">
  <g transform="matrix(1 0 0 1 -318 -518 )">
    <path d="M 27 13.5  C 27 21.06  21.06 27  13.5 27  C 5.94000000000002 27  0 21.06  0 13.5  C 0 5.94000000000002  5.94000000000002 0  13.5 0  C 21.06 0  27 5.94000000000002  27 13.5  Z M 19.0044642857143 12.1412337662338  C 18.8169642857143 11.9366883116883  18.5892857142857 11.8344155844156  18.3214285714286 11.8344155844156  L 18 11.8344155844156  L 18 9.73051948051951  C 18 8.38636363636363  17.5580357142857 7.23214285714286  16.6741071428572 6.26785714285714  C 15.7901785714286 5.30357142857143  14.7321428571429 4.82142857142857  13.5 4.82142857142857  C 12.2678571428571 4.82142857142857  11.2098214285714 5.30357142857143  10.3258928571428 6.26785714285714  C 9.4419642857143 7.23214285714286  8.99999999999998 8.38636363636363  8.99999999999998 9.73051948051951  L 8.99999999999998 11.8344155844156  L 8.67857142857143 11.8344155844156  C 8.41071428571429 11.8344155844156  8.18303571428569 11.9366883116883  7.99553571428573 12.1412337662338  C 7.80803571428572 12.3457792207792  7.71428571428571 12.5941558441558  7.71428571428571 12.8863636363636  L 7.71428571428571 19.1980519480519  C 7.71428571428571 19.4902597402598  7.80803571428572 19.7386363636364  7.99553571428573 19.9431818181818  C 8.18303571428569 20.1477272727273  8.41071428571429 20.25  8.67857142857143 20.25  L 18.3214285714286 20.25  C 18.5892857142857 20.25  18.8169642857143 20.1477272727273  19.0044642857143 19.9431818181818  C 19.1919642857143 19.7386363636364  19.2857142857143 19.4902597402598  19.2857142857143 19.1980519480519  L 19.2857142857143 12.8863636363636  C 19.2857142857143 12.5941558441558  19.1919642857143 12.3457792207792  19.0044642857143 12.1412337662338  Z M 10.9285714285714 9.73051948051951  C 10.9285714285714 8.95616883116885  11.1796875 8.29504870129872  11.6819196428571 7.74715909090912  C 12.1841517857143 7.19926948051946  12.7901785714286 6.92532467532468  13.5 6.92532467532468  C 14.2098214285714 6.92532467532468  14.8158482142857 7.19926948051946  15.3180803571429 7.74715909090912  C 15.8203125 8.29504870129872  16.0714285714286 8.95616883116885  16.0714285714286 9.73051948051951  L 16.0714285714286 11.8344155844156  L 10.9285714285714 11.8344155844156  L 10.9285714285714 9.73051948051951  Z " fill-rule="nonzero" fill="#f59a23" stroke="none" transform="matrix(1 0 0 1 318 518 )" />
  </g>
</svg>