<?xml version="1.0" encoding="utf-8"?>
<svg version="1.1" xmlns:xlink="http://www.w3.org/1999/xlink" width="27px" height="27px" xmlns="http://www.w3.org/2000/svg">
  <g transform="matrix(1 0 0 1 -356 -510 )">
    <path d="M 27 13.5  C 27 21.06  21.06 27  13.5 27  C 5.94000000000002 27  0 21.06  0 13.5  C 0 5.94000000000002  5.94000000000002 0  13.5 0  C 21.06 0  27 5.94000000000002  27 13.5  Z M 10.1626674107143 18.8008808992347  C 9.12806919642855 18.5694953762755  8.31194196428573 18.2277981505103  7.71428571428571 17.7757892219388  L 7.71428571428571 19.1479591836735  C 7.71428571428571 19.5192522321429  7.97293526785716 19.8636399872449  8.490234375 20.1811224489796  C 9.00753348214284 20.4986049107143  9.71065848214286 20.750169403699  10.599609375 20.9358159279336  C 11.4885602678571 21.1214624521683  12.4553571428572 21.2142857142857  13.5 21.2142857142857  C 14.5446428571428 21.2142857142857  15.5114397321429 21.1214624521683  16.400390625 20.9358159279336  C 17.2893415178571 20.750169403699  17.9924665178572 20.4986049107143  18.509765625 20.1811224489796  C 19.0270647321428 19.8636399872449  19.2857142857143 19.5192522321429  19.2857142857143 19.1479591836735  L 19.2857142857143 17.7757892219388  C 18.6880580357143 18.2277981505103  17.8719308035714 18.5694953762755  16.8373325892857 18.8008808992347  C 15.802734375 19.0322664221939  14.6902901785714 19.1479591836735  13.5 19.1479591836735  C 12.3097098214286 19.1479591836735  11.197265625 19.0322664221939  10.1626674107143 18.8008808992347  Z M 10.1626674107143 15.7013911033164  C 9.12806919642855 15.4700055803571  8.31194196428573 15.1283083545918  7.71428571428571 14.6762994260204  L 7.71428571428571 16.0484693877551  C 7.71428571428571 16.4197624362245  7.97293526785716 16.7641501913265  8.490234375 17.0816326530612  C 9.00753348214284 17.399115114796  9.71065848214286 17.6506796077806  10.599609375 17.8363261320153  C 11.4885602678571 18.02197265625  12.4553571428572 18.1147959183674  13.5 18.1147959183674  C 14.5446428571428 18.1147959183674  15.5114397321429 18.02197265625  16.400390625 17.8363261320153  C 17.2893415178571 17.6506796077806  17.9924665178572 17.399115114796  18.509765625 17.0816326530612  C 19.0270647321428 16.7641501913265  19.2857142857143 16.4197624362245  19.2857142857143 16.0484693877551  L 19.2857142857143 14.6762994260204  C 18.6880580357143 15.1283083545918  17.8719308035714 15.4700055803571  16.8373325892857 15.7013911033164  C 15.802734375 15.9327766262755  14.6902901785714 16.0484693877551  13.5 16.0484693877551  C 12.3097098214286 16.0484693877551  11.197265625 15.9327766262755  10.1626674107143 15.7013911033164  Z M 10.1626674107143 12.6019013073979  C 9.12806919642855 12.3705157844388  8.31194196428573 12.0288185586735  7.71428571428571 11.5768096301021  L 7.71428571428571 12.9489795918367  C 7.71428571428571 13.3202726403061  7.97293526785716 13.6646603954082  8.490234375 13.9821428571429  C 9.00753348214284 14.2996253188775  9.71065848214286 14.5511898118622  10.599609375 14.7368363360969  C 11.4885602678571 14.9224828603317  12.4553571428572 15.015306122449  13.5 15.015306122449  C 14.5446428571428 15.015306122449  15.5114397321429 14.9224828603317  16.400390625 14.7368363360969  C 17.2893415178571 14.5511898118622  17.9924665178572 14.2996253188775  18.509765625 13.9821428571429  C 19.0270647321428 13.6646603954082  19.2857142857143 13.3202726403061  19.2857142857143 12.9489795918367  L 19.2857142857143 11.5768096301021  C 18.6880580357143 12.0288185586735  17.8719308035714 12.3705157844388  16.8373325892857 12.6019013073979  C 15.802734375 12.8332868303571  14.6902901785714 12.9489795918367  13.5 12.9489795918367  C 12.3097098214286 12.9489795918367  11.197265625 12.8332868303571  10.1626674107143 12.6019013073979  Z M 10.599609375 7.02846978635202  C 9.71065848214286 7.21411631058675  9.00753348214284 7.46568080357143  8.490234375 7.78316326530611  C 7.97293526785716 8.10064572704084  7.71428571428571 8.44503348214286  7.71428571428571 8.81632653061227  L 7.71428571428571 9.84948979591832  C 7.71428571428571 10.2207828443878  7.97293526785716 10.5651705994897  8.490234375 10.8826530612245  C 9.00753348214284 11.2001355229592  9.71065848214286 11.4517000159439  10.599609375 11.6373465401786  C 11.4885602678571 11.8229930644133  12.4553571428572 11.9158163265306  13.5 11.9158163265306  C 14.5446428571428 11.9158163265306  15.5114397321429 11.8229930644133  16.400390625 11.6373465401786  C 17.2893415178571 11.4517000159439  17.9924665178572 11.2001355229592  18.509765625 10.8826530612245  C 19.0270647321428 10.5651705994897  19.2857142857143 10.2207828443878  19.2857142857143 9.84948979591832  L 19.2857142857143 8.81632653061227  C 19.2857142857143 8.44503348214286  19.0270647321428 8.10064572704084  18.509765625 7.78316326530611  C 17.9924665178572 7.46568080357143  17.2893415178571 7.21411631058675  16.400390625 7.02846978635202  C 15.5114397321429 6.84282326211734  14.5446428571428 6.75  13.5 6.75  C 12.4553571428572 6.75  11.4885602678571 6.84282326211734  10.599609375 7.02846978635202  Z " fill-rule="nonzero" fill="#02a7f0" stroke="none" transform="matrix(1 0 0 1 356 510 )" />
  </g>
</svg>