<?xml version="1.0" encoding="utf-8"?>
<svg version="1.1" xmlns:xlink="http://www.w3.org/1999/xlink" width="40px" height="40px" xmlns="http://www.w3.org/2000/svg">
  <g transform="matrix(1 0 0 1 -277 0 )">
    <path d="M 297 0  C 308.2 0  317 8.8  317 20  C 317 31.2  308.2 40  297 40  C 285.8 40  277 31.2  277 20  C 277 8.8  285.8 0  297 0  Z " fill-rule="nonzero" fill="#ffffff" stroke="none" />
    <path d="M 297 0.5  C 307.92 0.5  316.5 9.08  316.5 20  C 316.5 30.92  307.92 39.5  297 39.5  C 286.08 39.5  277.5 30.92  277.5 20  C 277.5 9.08  286.08 0.5  297 0.5  Z " stroke-width="1" stroke="#d7d7d7" fill="none" />
  </g>
</svg>