<?xml version="1.0" encoding="utf-8"?>
<svg version="1.1" xmlns:xlink="http://www.w3.org/1999/xlink" width="19px" height="16px" xmlns="http://www.w3.org/2000/svg">
  <g transform="matrix(1 0 0 1 -150 -25 )">
    <path d="M 7.73086734693878 14.63125  C 7.72278911564628 14.6770833333334  7.73086734693878 14.7333333333333  7.75510204081634 14.8  C 7.75510204081634 14.8333333333334  7.75914115646256 14.9166666666666  7.76721938775512 15.05  C 7.77529761904762 15.1833333333333  7.77731717687073 15.29375  7.77327806122451 15.38125  C 7.76923894557823 15.46875  7.75712159863945 15.5666666666667  7.73692602040817 15.675  C 7.71673044217689 15.7833333333333  7.67633928571427 15.8645833333334  7.61575255102043 15.91875  C 7.55516581632652 15.9729166666667  7.47236394557823 16  7.36734693877549 16  L 3.48979591836738 16  C 2.5284863945578 16  1.70652636054421 15.6479166666667  1.02391581632652 14.94375  C 0.341305272108841 14.2395833333334  0 13.3916666666667  0 12.4  L 0 3.60000000000004  C 0 2.60833333333332  0.341305272108841 1.76041666666664  1.02391581632652 1.05624999999996  C 1.70652636054421 0.352083333333342  2.5284863945578 0  3.48979591836738 0  L 7.36734693877549 0  C 7.47236394557823 0  7.56324404761902 0.039583333333342  7.63998724489793 0.118749999999961  C 7.71673044217689 0.197916666666645  7.75510204081634 0.291666666666645  7.75510204081634 0.399999999999961  C 7.75510204081634 0.433333333333329  7.75914115646256 0.516666666666684  7.76721938775512 0.649999999999961  C 7.77529761904762 0.783333333333303  7.77731717687073 0.893749999999987  7.77327806122451 0.981250000000013  C 7.76923894557823 1.06875000000004  7.75712159863945 1.16666666666664  7.73692602040817 1.27499999999996  C 7.71673044217689 1.38333333333334  7.67633928571427 1.46458333333333  7.61575255102043 1.51874999999999  C 7.55516581632652 1.57291666666664  7.47236394557823 1.60000000000004  7.36734693877549 1.60000000000004  L 3.48979591836738 1.60000000000004  C 2.95663265306122 1.60000000000004  2.50021258503402 1.79583333333332  2.12053571428573 2.1875  C 1.74085884353744 2.57916666666668  1.55102040816323 3.04999999999999  1.55102040816323 3.60000000000004  L 1.55102040816323 12.4  C 1.55102040816323 12.95  1.74085884353744 13.4208333333333  2.12053571428573 13.8125  C 2.50021258503402 14.2041666666667  2.95663265306122 14.4  3.48979591836738 14.4  L 6.9795918367347 14.4  L 7.11288265306122 14.4  L 7.27040816326531 14.4  C 7.27040816326531 14.4  7.31685799319732 14.4041666666667  7.40975765306122 14.4125  C 7.50265731292518 14.4208333333333  7.5491071428572 14.4333333333333  7.5491071428572 14.45  C 7.5491071428572 14.4666666666667  7.58142006802726 14.4895833333334  7.64604591836738 14.51875  C 7.7106717687075 14.5479166666667  7.73894557823128 14.5854166666667  7.73086734693878 14.63125  Z M 18.7697704081632 7.4375  C 18.9232568027211 7.5958333333333  19 7.7833333333333  19 8  C 19 8.2166666666667  18.9232568027211 8.4041666666667  18.7697704081632 8.5625  L 12.1779336734694 15.3625  C 12.0244472789116 15.5208333333334  11.8426870748299 15.6  11.6326530612245 15.6  C 11.422619047619 15.6  11.2408588435374 15.5208333333334  11.0873724489796 15.3625  C 10.9338860544218 15.2041666666667  10.8571428571428 15.0166666666667  10.8571428571428 14.8  L 10.8571428571428 11.2  L 5.42857142857147 11.2  C 5.21853741496597 11.2  5.03677721088433 11.1208333333333  4.88329081632652 10.9625  C 4.72980442176872 10.8041666666667  4.65306122448982 10.6166666666667  4.65306122448982 10.4  L 4.65306122448982 5.60000000000004  C 4.65306122448982 5.38333333333334  4.72980442176872 5.19583333333334  4.88329081632652 5.03750000000004  C 5.03677721088433 4.87916666666667  5.21853741496597 4.79999999999999  5.42857142857147 4.79999999999999  L 10.8571428571428 4.79999999999999  L 10.8571428571428 1.20000000000001  C 10.8571428571428 0.983333333333316  10.9338860544218 0.795833333333316  11.0873724489796 0.637500000000013  C 11.2408588435374 0.479166666666645  11.422619047619 0.399999999999961  11.6326530612245 0.399999999999961  C 11.8426870748299 0.399999999999961  12.0244472789116 0.479166666666645  12.1779336734694 0.637500000000013  L 18.7697704081632 7.4375  Z " fill-rule="nonzero" fill="#ffffff" stroke="none" transform="matrix(1 0 0 1 150 25 )" />
  </g>
</svg>