<?xml version="1.0" encoding="utf-8"?>
<svg version="1.1" xmlns:xlink="http://www.w3.org/1999/xlink" width="236px" height="45px" xmlns="http://www.w3.org/2000/svg">
  <g transform="matrix(1 0 0 1 -1932 -338 )">
    <path d="M 1933 342  A 3 3 0 0 1 1936 339 L 2164 339  A 3 3 0 0 1 2167 342 L 2167 379  A 3 3 0 0 1 2164 382 L 1936 382  A 3 3 0 0 1 1933 379 L 1933 342  Z " fill-rule="nonzero" fill="#ff3399" stroke="none" fill-opacity="0.0980392156862745" />
    <path d="M 1932.5 342  A 3.5 3.5 0 0 1 1936 338.5 L 2164 338.5  A 3.5 3.5 0 0 1 2167.5 342 L 2167.5 379  A 3.5 3.5 0 0 1 2164 382.5 L 1936 382.5  A 3.5 3.5 0 0 1 1932.5 379 L 1932.5 342  Z " stroke-width="1" stroke-dasharray="9,4" stroke="#ff3399" fill="none" stroke-dashoffset="0.5" />
  </g>
</svg>