<?xml version="1.0" encoding="utf-8"?>
<svg version="1.1" xmlns:xlink="http://www.w3.org/1999/xlink" width="241px" height="21px" xmlns="http://www.w3.org/2000/svg">
  <g transform="matrix(1 0 0 1 -347 -131 )">
    <path d="M 348 135  A 3 3 0 0 1 351 132 L 584 132  A 3 3 0 0 1 587 135 L 587 148  A 3 3 0 0 1 584 151 L 351 151  A 3 3 0 0 1 348 148 L 348 135  Z " fill-rule="nonzero" fill="#ff3399" stroke="none" fill-opacity="0.0980392156862745" />
    <path d="M 347.5 135  A 3.5 3.5 0 0 1 351 131.5 L 584 131.5  A 3.5 3.5 0 0 1 587.5 135 L 587.5 148  A 3.5 3.5 0 0 1 584 151.5 L 351 151.5  A 3.5 3.5 0 0 1 347.5 148 L 347.5 135  Z " stroke-width="1" stroke-dasharray="9,4" stroke="#ff3399" fill="none" stroke-dashoffset="0.5" />
  </g>
</svg>