<?xml version="1.0" encoding="utf-8"?>
<svg version="1.1" xmlns:xlink="http://www.w3.org/1999/xlink" width="236px" height="56px" xmlns="http://www.w3.org/2000/svg">
  <g transform="matrix(1 0 0 1 -1932 -399 )">
    <path d="M 1933 403  A 3 3 0 0 1 1936 400 L 2164 400  A 3 3 0 0 1 2167 403 L 2167 451  A 3 3 0 0 1 2164 454 L 1936 454  A 3 3 0 0 1 1933 451 L 1933 403  Z " fill-rule="nonzero" fill="#ff3399" stroke="none" fill-opacity="0.0980392156862745" />
    <path d="M 1932.5 403  A 3.5 3.5 0 0 1 1936 399.5 L 2164 399.5  A 3.5 3.5 0 0 1 2167.5 403 L 2167.5 451  A 3.5 3.5 0 0 1 2164 454.5 L 1936 454.5  A 3.5 3.5 0 0 1 1932.5 451 L 1932.5 403  Z " stroke-width="1" stroke-dasharray="9,4" stroke="#ff3399" fill="none" stroke-dashoffset="0.5" />
  </g>
</svg>