<?xml version="1.0" encoding="utf-8"?>
<svg version="1.1" xmlns:xlink="http://www.w3.org/1999/xlink" width="126px" height="40px" xmlns="http://www.w3.org/2000/svg">
  <defs>
    <mask fill="white" id="clip9">
      <path d="M 0 35  L 0 5  C 0 2.2  2.20000000000005 0  5 0  L 121 0  C 123.8 0  126 2.2  126 5  L 126 35  C 126 37.8  123.8 40  121 40  L 64 40  L 5 40  C 2.20000000000005 40  0 37.8  0 35  Z " fill-rule="evenodd" />
    </mask>
  </defs>
  <g transform="matrix(1 0 0 1 -1386 -35 )">
    <path d="M 0 35  L 0 5  C 0 2.2  2.20000000000005 0  5 0  L 121 0  C 123.8 0  126 2.2  126 5  L 126 35  C 126 37.8  123.8 40  121 40  L 64 40  L 5 40  C 2.20000000000005 40  0 37.8  0 35  Z " fill-rule="nonzero" fill="#ffffff" stroke="none" transform="matrix(1 0 0 1 1386 35 )" />
    <path d="M 0 35  L 0 5  C 0 2.2  2.20000000000005 0  5 0  L 121 0  C 123.8 0  126 2.2  126 5  L 126 35  C 126 37.8  123.8 40  121 40  L 64 40  L 5 40  C 2.20000000000005 40  0 37.8  0 35  Z " stroke-width="2" stroke="#d7d7d7" fill="none" transform="matrix(1 0 0 1 1386 35 )" mask="url(#clip9)" />
  </g>
</svg>