<?xml version="1.0" encoding="utf-8"?>
<svg version="1.1" xmlns:xlink="http://www.w3.org/1999/xlink" width="12px" height="12px" viewBox="350 228.5  12 12" xmlns="http://www.w3.org/2000/svg">
  <path d="M 356 228.5  C 359.36 228.5  362 231.14  362 234.5  C 362 237.86  359.36 240.5  356 240.5  C 352.64 240.5  350 237.86  350 234.5  C 350 231.14  352.64 228.5  356 228.5  Z " fill-rule="nonzero" fill="#f0f0f0" stroke="none" />
  <path d="M 356 229  C 359.08 229  361.5 231.42  361.5 234.5  C 361.5 237.58  359.08 240  356 240  C 352.92 240  350.5 237.58  350.5 234.5  C 350.5 231.42  352.92 229  356 229  Z " stroke-width="1" stroke="#555555" fill="none" />
  <path d="M 356 237.5  C 354.32 237.5  353 236.18  353 234.5  C 353 232.82  354.32 231.5  356 231.5  C 357.68 231.5  359 232.82  359 234.5  C 359 236.18  357.68 237.5  356 237.5  " fill-rule="nonzero" fill="#555555" stroke="none" />
</svg>