<?xml version="1.0" encoding="utf-8"?>
<svg version="1.1" xmlns:xlink="http://www.w3.org/1999/xlink" width="12px" height="12px" viewBox="430 228.5  12 12" xmlns="http://www.w3.org/2000/svg">
  <path d="M 436 228.5  C 439.36 228.5  442 231.14  442 234.5  C 442 237.86  439.36 240.5  436 240.5  C 432.64 240.5  430 237.86  430 234.5  C 430 231.14  432.64 228.5  436 228.5  Z " fill-rule="nonzero" fill="#ffffff" stroke="none" />
  <path d="M 436 229  C 439.08 229  441.5 231.42  441.5 234.5  C 441.5 237.58  439.08 240  436 240  C 432.92 240  430.5 237.58  430.5 234.5  C 430.5 231.42  432.92 229  436 229  Z " stroke-width="1" stroke="#555555" fill="none" />
  <path d="M 436 237.5  C 434.32 237.5  433 236.18  433 234.5  C 433 232.82  434.32 231.5  436 231.5  C 437.68 231.5  439 232.82  439 234.5  C 439 236.18  437.68 237.5  436 237.5  " fill-rule="nonzero" fill="#555555" stroke="none" />
</svg>