<?xml version="1.0" encoding="utf-8"?>
<svg version="1.1" xmlns:xlink="http://www.w3.org/1999/xlink" width="12px" height="12px" viewBox="34 74.5  12 12" xmlns="http://www.w3.org/2000/svg">
  <path d="M 40 74.5  C 43.36 74.5  46 77.14  46 80.5  C 46 83.86  43.36 86.5  40 86.5  C 36.64 86.5  34 83.86  34 80.5  C 34 77.14  36.64 74.5  40 74.5  Z " fill-rule="nonzero" fill="#f0f0f0" stroke="none" />
  <path d="M 40 75  C 43.08 75  45.5 77.42  45.5 80.5  C 45.5 83.58  43.08 86  40 86  C 36.92 86  34.5 83.58  34.5 80.5  C 34.5 77.42  36.92 75  40 75  Z " stroke-width="1" stroke="#555555" fill="none" />
  <path d="M 40 83.5  C 38.32 83.5  37 82.18  37 80.5  C 37 78.82  38.32 77.5  40 77.5  C 41.68 77.5  43 78.82  43 80.5  C 43 82.18  41.68 83.5  40 83.5  " fill-rule="nonzero" fill="#555555" stroke="none" />
</svg>