<?xml version="1.0" encoding="utf-8"?>
<svg version="1.1" xmlns:xlink="http://www.w3.org/1999/xlink" width="12px" height="12px" viewBox="172 74.5  12 12" xmlns="http://www.w3.org/2000/svg">
  <path d="M 178 74.5  C 181.36 74.5  184 77.14  184 80.5  C 184 83.86  181.36 86.5  178 86.5  C 174.64 86.5  172 83.86  172 80.5  C 172 77.14  174.64 74.5  178 74.5  Z " fill-rule="nonzero" fill="#f0f0f0" stroke="none" />
  <path d="M 178 75  C 181.08 75  183.5 77.42  183.5 80.5  C 183.5 83.58  181.08 86  178 86  C 174.92 86  172.5 83.58  172.5 80.5  C 172.5 77.42  174.92 75  178 75  Z " stroke-width="1" stroke="#555555" fill="none" />
  <path d="M 178 83.5  C 176.32 83.5  175 82.18  175 80.5  C 175 78.82  176.32 77.5  178 77.5  C 179.68 77.5  181 78.82  181 80.5  C 181 82.18  179.68 83.5  178 83.5  " fill-rule="nonzero" fill="#555555" stroke="none" />
</svg>