<?xml version="1.0" encoding="utf-8"?>
<svg version="1.1" xmlns:xlink="http://www.w3.org/1999/xlink" width="12px" height="12px" viewBox="290 74.5  12 12" xmlns="http://www.w3.org/2000/svg">
  <path d="M 296 74.5  C 299.36 74.5  302 77.14  302 80.5  C 302 83.86  299.36 86.5  296 86.5  C 292.64 86.5  290 83.86  290 80.5  C 290 77.14  292.64 74.5  296 74.5  Z " fill-rule="nonzero" fill="#ffffff" stroke="none" />
  <path d="M 296 75  C 299.08 75  301.5 77.42  301.5 80.5  C 301.5 83.58  299.08 86  296 86  C 292.92 86  290.5 83.58  290.5 80.5  C 290.5 77.42  292.92 75  296 75  Z " stroke-width="1" stroke="#555555" fill="none" />
  <path d="M 296 83.5  C 294.32 83.5  293 82.18  293 80.5  C 293 78.82  294.32 77.5  296 77.5  C 297.68 77.5  299 78.82  299 80.5  C 299 82.18  297.68 83.5  296 83.5  " fill-rule="nonzero" fill="#555555" stroke="none" />
</svg>