<?xml version="1.0" encoding="utf-8"?>
<svg version="1.1" xmlns:xlink="http://www.w3.org/1999/xlink" width="220px" height="34px" xmlns="http://www.w3.org/2000/svg">
  <g transform="matrix(1 0 0 1 -592 -88 )">
    <path d="M 593 92  A 3 3 0 0 1 596 89 L 808 89  A 3 3 0 0 1 811 92 L 811 118  A 3 3 0 0 1 808 121 L 596 121  A 3 3 0 0 1 593 118 L 593 92  Z " fill-rule="nonzero" fill="#ff3399" stroke="none" fill-opacity="0.0980392156862745" />
    <path d="M 592.5 92  A 3.5 3.5 0 0 1 596 88.5 L 808 88.5  A 3.5 3.5 0 0 1 811.5 92 L 811.5 118  A 3.5 3.5 0 0 1 808 121.5 L 596 121.5  A 3.5 3.5 0 0 1 592.5 118 L 592.5 92  Z " stroke-width="1" stroke-dasharray="9,4" stroke="#ff3399" fill="none" stroke-dashoffset="0.5" />
  </g>
</svg>