<?xml version="1.0" encoding="utf-8"?>
<svg version="1.1" xmlns:xlink="http://www.w3.org/1999/xlink" width="79px" height="32px" xmlns="http://www.w3.org/2000/svg">
  <defs>
    <mask fill="white" id="clip24">
      <path d="M 0 27  L 0 3  C 0 1.31999999999999  1.31999999999999 0  3 0  L 41.3333333333334 0  L 74 0  C 75.68 0  77 1.31999999999999  77 3  L 77 27  C 77 28.68  75.68 30  74 30  L 3 30  C 1.31999999999999 30  0 28.68  0 27  Z " fill-rule="evenodd" />
    </mask>
    <filter x="402px" y="89px" width="79px" height="32px" filterUnits="userSpaceOnUse" id="filter25">
      <feOffset dx="0" dy="0" in="SourceAlpha" result="shadowOffsetInner" />
      <feGaussianBlur stdDeviation="0.5" in="shadowOffsetInner" result="shadowGaussian" />
      <feComposite in2="shadowGaussian" operator="atop" in="SourceAlpha" result="shadowComposite" />
      <feColorMatrix type="matrix" values="0 0 0 0 0  0 0 0 0 0  0 0 0 0 0  0 0 0 0.349019607843137 0  " in="shadowComposite" />
    </filter>
    <g id="widget26">
      <path d="M 0 27  L 0 3  C 0 1.31999999999999  1.31999999999999 0  3 0  L 41.3333333333334 0  L 74 0  C 75.68 0  77 1.31999999999999  77 3  L 77 27  C 77 28.68  75.68 30  74 30  L 3 30  C 1.31999999999999 30  0 28.68  0 27  Z " fill-rule="nonzero" fill="#44afdd" stroke="none" transform="matrix(1 0 0 1 403 90 )" />
      <path d="M 0 27  L 0 3  C 0 1.31999999999999  1.31999999999999 0  3 0  L 41.3333333333334 0  L 74 0  C 75.68 0  77 1.31999999999999  77 3  L 77 27  C 77 28.68  75.68 30  74 30  L 3 30  C 1.31999999999999 30  0 28.68  0 27  Z " stroke-width="2" stroke="#aaaaaa" fill="none" transform="matrix(1 0 0 1 403 90 )" mask="url(#clip24)" />
    </g>
  </defs>
  <g transform="matrix(1 0 0 1 -402 -89 )">
    <use xlink:href="#widget26" filter="url(#filter25)" />
    <use xlink:href="#widget26" />
  </g>
</svg>