<?xml version="1.0" encoding="utf-8"?>
<svg version="1.1" xmlns:xlink="http://www.w3.org/1999/xlink" width="12px" height="12px" viewBox="159 1314.5  12 12" xmlns="http://www.w3.org/2000/svg">
  <path d="M 165 1314.5  C 168.36 1314.5  171 1317.14  171 1320.5  C 171 1323.86  168.36 1326.5  165 1326.5  C 161.64 1326.5  159 1323.86  159 1320.5  C 159 1317.14  161.64 1314.5  165 1314.5  Z " fill-rule="nonzero" fill="#f0f0f0" stroke="none" />
  <path d="M 165 1315  C 168.08 1315  170.5 1317.42  170.5 1320.5  C 170.5 1323.58  168.08 1326  165 1326  C 161.92 1326  159.5 1323.58  159.5 1320.5  C 159.5 1317.42  161.92 1315  165 1315  Z " stroke-width="1" stroke="#797979" fill="none" />
  <path d="M 165 1323.5  C 163.32 1323.5  162 1322.18  162 1320.5  C 162 1318.82  163.32 1317.5  165 1317.5  C 166.68 1317.5  168 1318.82  168 1320.5  C 168 1322.18  166.68 1323.5  165 1323.5  " fill-rule="nonzero" fill="#797979" stroke="none" />
</svg>