<?xml version="1.0" encoding="utf-8"?>
<svg version="1.1" xmlns:xlink="http://www.w3.org/1999/xlink" width="12px" height="12px" viewBox="259 1314.5  12 12" xmlns="http://www.w3.org/2000/svg">
  <path d="M 265 1314.5  C 268.36 1314.5  271 1317.14  271 1320.5  C 271 1323.86  268.36 1326.5  265 1326.5  C 261.64 1326.5  259 1323.86  259 1320.5  C 259 1317.14  261.64 1314.5  265 1314.5  Z " fill-rule="nonzero" fill="#ffffff" stroke="none" />
  <path d="M 265 1315  C 268.08 1315  270.5 1317.42  270.5 1320.5  C 270.5 1323.58  268.08 1326  265 1326  C 261.92 1326  259.5 1323.58  259.5 1320.5  C 259.5 1317.42  261.92 1315  265 1315  Z " stroke-width="1" stroke="#797979" fill="none" />
  <path d="M 265 1323.5  C 263.32 1323.5  262 1322.18  262 1320.5  C 262 1318.82  263.32 1317.5  265 1317.5  C 266.68 1317.5  268 1318.82  268 1320.5  C 268 1322.18  266.68 1323.5  265 1323.5  " fill-rule="nonzero" fill="#797979" stroke="none" />
</svg>