<?xml version="1.0" encoding="utf-8"?>
<svg version="1.1" xmlns:xlink="http://www.w3.org/1999/xlink" width="174px" height="40px" xmlns="http://www.w3.org/2000/svg">
  <g transform="matrix(1 0 0 1 -686 -108 )">
    <path d="M 687 112  A 3 3 0 0 1 690 109 L 856 109  A 3 3 0 0 1 859 112 L 859 144  A 3 3 0 0 1 856 147 L 690 147  A 3 3 0 0 1 687 144 L 687 112  Z " fill-rule="nonzero" fill="#ff3399" stroke="none" fill-opacity="0.0980392156862745" />
    <path d="M 686.5 112  A 3.5 3.5 0 0 1 690 108.5 L 856 108.5  A 3.5 3.5 0 0 1 859.5 112 L 859.5 144  A 3.5 3.5 0 0 1 856 147.5 L 690 147.5  A 3.5 3.5 0 0 1 686.5 144 L 686.5 112  Z " stroke-width="1" stroke-dasharray="9,4" stroke="#ff3399" fill="none" stroke-dashoffset="0.5" />
  </g>
</svg>