<?xml version="1.0" encoding="utf-8"?>
<svg version="1.1" xmlns:xlink="http://www.w3.org/1999/xlink" width="12px" height="12px" viewBox="260 956.5  12 12" xmlns="http://www.w3.org/2000/svg">
  <path d="M 266 956.5  C 269.36 956.5  272 959.14  272 962.5  C 272 965.86  269.36 968.5  266 968.5  C 262.64 968.5  260 965.86  260 962.5  C 260 959.14  262.64 956.5  266 956.5  Z " fill-rule="nonzero" fill="#ffffff" stroke="none" />
  <path d="M 266 957  C 269.08 957  271.5 959.42  271.5 962.5  C 271.5 965.58  269.08 968  266 968  C 262.92 968  260.5 965.58  260.5 962.5  C 260.5 959.42  262.92 957  266 957  Z " stroke-width="1" stroke="#797979" fill="none" />
  <path d="M 266 965.5  C 264.32 965.5  263 964.18  263 962.5  C 263 960.82  264.32 959.5  266 959.5  C 267.68 959.5  269 960.82  269 962.5  C 269 964.18  267.68 965.5  266 965.5  " fill-rule="nonzero" fill="#797979" stroke="none" />
</svg>