<?xml version="1.0" encoding="utf-8"?>
<svg version="1.1" xmlns:xlink="http://www.w3.org/1999/xlink" width="196px" height="41px" xmlns="http://www.w3.org/2000/svg">
  <g transform="matrix(1 0 0 1 -519 -888 )">
    <path d="M 520 892  A 3 3 0 0 1 523 889 L 711 889  A 3 3 0 0 1 714 892 L 714 925  A 3 3 0 0 1 711 928 L 523 928  A 3 3 0 0 1 520 925 L 520 892  Z " fill-rule="nonzero" fill="#ff3399" stroke="none" fill-opacity="0.0980392156862745" />
    <path d="M 519.5 892  A 3.5 3.5 0 0 1 523 888.5 L 711 888.5  A 3.5 3.5 0 0 1 714.5 892 L 714.5 925  A 3.5 3.5 0 0 1 711 928.5 L 523 928.5  A 3.5 3.5 0 0 1 519.5 925 L 519.5 892  Z " stroke-width="1" stroke-dasharray="9,4" stroke="#ff3399" fill="none" stroke-dashoffset="0.5" />
  </g>
</svg>