<?xml version="1.0" encoding="utf-8"?>
<svg version="1.1" xmlns:xlink="http://www.w3.org/1999/xlink" width="10px" height="10px" xmlns="http://www.w3.org/2000/svg">
  <g transform="matrix(1 0 0 1 0 -4 )">
    <path d="M 8.11789772727273 4.609375  C 8.16051136363636 4.65198863636364  8.18181818181818 4.70643939393939  8.18181818181818 4.77272727272727  L 8.18181818181818 5.22727272727273  C 8.18181818181818 5.29356060606061  8.16051136363636 5.34801136363636  8.11789772727273 5.390625  C 8.07528409090909 5.43323863636364  8.02083333333334 5.45454545454545  7.95454545454545 5.45454545454545  L 2.04545454545455 5.45454545454545  C 1.97916666666667 5.45454545454545  1.92471590909091 5.43323863636364  1.88210227272727 5.390625  C 1.83948863636364 5.34801136363636  1.81818181818182 5.29356060606061  1.81818181818182 5.22727272727273  L 1.81818181818182 4.77272727272727  C 1.81818181818182 4.70643939393939  1.83948863636364 4.65198863636364  1.88210227272727 4.609375  C 1.92471590909091 4.56676136363636  1.97916666666667 4.54545454545455  2.04545454545455 4.54545454545455  L 7.95454545454545 4.54545454545455  C 8.02083333333334 4.54545454545455  8.07528409090909 4.56676136363636  8.11789772727273 4.609375  Z M 8.75710227272727 8.75710227272727  C 8.97964015151515 8.53456439393939  9.09090909090909 8.26704545454545  9.09090909090909 7.95454545454545  L 9.09090909090909 2.04545454545455  C 9.09090909090909 1.73295454545455  8.97964015151515 1.46543560606061  8.75710227272727 1.24289772727273  C 8.53456439393939 1.02035984848485  8.26704545454545 0.909090909090909  7.95454545454545 0.909090909090909  L 2.04545454545455 0.909090909090909  C 1.73295454545455 0.909090909090909  1.46543560606061 1.02035984848485  1.24289772727273 1.24289772727273  C 1.02035984848485 1.46543560606061  0.909090909090909 1.73295454545455  0.909090909090909 2.04545454545455  L 0.909090909090909 7.95454545454545  C 0.909090909090909 8.26704545454545  1.02035984848485 8.53456439393939  1.24289772727273 8.75710227272727  C 1.46543560606061 8.97964015151515  1.73295454545455 9.09090909090909  2.04545454545455 9.09090909090909  L 7.95454545454545 9.09090909090909  C 8.26704545454545 9.09090909090909  8.53456439393939 8.97964015151515  8.75710227272727 8.75710227272727  Z M 9.39985795454545 0.600142045454546  C 9.79995265151515 1.00023674242424  10 1.48200757575757  10 2.04545454545455  L 10 7.95454545454545  C 10 8.51799242424242  9.79995265151515 8.99976325757576  9.39985795454545 9.39985795454545  C 8.99976325757576 9.79995265151515  8.51799242424243 10  7.95454545454545 10  L 2.04545454545455 10  C 1.48200757575758 10  1.00023674242424 9.79995265151515  0.600142045454545 9.39985795454545  C 0.200047348484848 8.99976325757576  0 8.51799242424242  0 7.95454545454545  L 0 2.04545454545455  C 0 1.48200757575757  0.200047348484848 1.00023674242424  0.600142045454545 0.600142045454546  C 1.00023674242424 0.200047348484848  1.48200757575758 0  2.04545454545455 0  L 7.95454545454545 0  C 8.51799242424243 0  8.99976325757576 0.200047348484848  9.39985795454545 0.600142045454546  Z " fill-rule="nonzero" fill="#000000" stroke="none" transform="matrix(1 0 0 1 0 4 )" />
  </g>
</svg>