<?xml version="1.0" encoding="utf-8"?>
<svg version="1.1" xmlns:xlink="http://www.w3.org/1999/xlink" width="280px" height="96px" xmlns="http://www.w3.org/2000/svg">
  <g transform="matrix(1 0 0 1 -436 -924 )">
    <path d="M 437 928  A 3 3 0 0 1 440 925 L 712 925  A 3 3 0 0 1 715 928 L 715 1016  A 3 3 0 0 1 712 1019 L 440 1019  A 3 3 0 0 1 437 1016 L 437 928  Z " fill-rule="nonzero" fill="#ff3399" stroke="none" fill-opacity="0.0980392156862745" />
    <path d="M 436.5 928  A 3.5 3.5 0 0 1 440 924.5 L 712 924.5  A 3.5 3.5 0 0 1 715.5 928 L 715.5 1016  A 3.5 3.5 0 0 1 712 1019.5 L 440 1019.5  A 3.5 3.5 0 0 1 436.5 1016 L 436.5 928  Z " stroke-width="1" stroke-dasharray="9,4" stroke="#ff3399" fill="none" stroke-dashoffset="0.5" />
  </g>
</svg>