<?xml version="1.0" encoding="utf-8"?>
<svg version="1.1" xmlns:xlink="http://www.w3.org/1999/xlink" width="786px" height="50px" xmlns="http://www.w3.org/2000/svg">
  <g transform="matrix(1 0 0 1 -368 -80 )">
    <path d="M 369 84  A 3 3 0 0 1 372 81 L 1150 81  A 3 3 0 0 1 1153 84 L 1153 126  A 3 3 0 0 1 1150 129 L 372 129  A 3 3 0 0 1 369 126 L 369 84  Z " fill-rule="nonzero" fill="#ff3399" stroke="none" fill-opacity="0.0980392156862745" />
    <path d="M 368.5 84  A 3.5 3.5 0 0 1 372 80.5 L 1150 80.5  A 3.5 3.5 0 0 1 1153.5 84 L 1153.5 126  A 3.5 3.5 0 0 1 1150 129.5 L 372 129.5  A 3.5 3.5 0 0 1 368.5 126 L 368.5 84  Z " stroke-width="1" stroke-dasharray="9,4" stroke="#ff3399" fill="none" stroke-dashoffset="0.5" />
  </g>
</svg>