<?xml version="1.0" encoding="utf-8"?>
<svg version="1.1" xmlns:xlink="http://www.w3.org/1999/xlink" width="12px" height="12px" viewBox="237 964.5  12 12" xmlns="http://www.w3.org/2000/svg">
  <path d="M 243 964.5  C 246.36 964.5  249 967.14  249 970.5  C 249 973.86  246.36 976.5  243 976.5  C 239.64 976.5  237 973.86  237 970.5  C 237 967.14  239.64 964.5  243 964.5  Z " fill-rule="nonzero" fill="#ffffff" stroke="none" />
  <path d="M 243 965  C 246.08 965  248.5 967.42  248.5 970.5  C 248.5 973.58  246.08 976  243 976  C 239.92 976  237.5 973.58  237.5 970.5  C 237.5 967.42  239.92 965  243 965  Z " stroke-width="1" stroke="#797979" fill="none" />
  <path d="M 243 973.5  C 241.32 973.5  240 972.18  240 970.5  C 240 968.82  241.32 967.5  243 967.5  C 244.68 967.5  246 968.82  246 970.5  C 246 972.18  244.68 973.5  243 973.5  " fill-rule="nonzero" fill="#797979" stroke="none" />
</svg>