<?xml version="1.0" encoding="utf-8"?>
<svg version="1.1" xmlns:xlink="http://www.w3.org/1999/xlink" width="12px" height="12px" viewBox="60 74.5  12 12" xmlns="http://www.w3.org/2000/svg">
  <path d="M 66 74.5  C 69.36 74.5  72 77.14  72 80.5  C 72 83.86  69.36 86.5  66 86.5  C 62.64 86.5  60 83.86  60 80.5  C 60 77.14  62.64 74.5  66 74.5  Z " fill-rule="nonzero" fill="#ffffff" stroke="none" />
  <path d="M 66 75  C 69.08 75  71.5 77.42  71.5 80.5  C 71.5 83.58  69.08 86  66 86  C 62.92 86  60.5 83.58  60.5 80.5  C 60.5 77.42  62.92 75  66 75  Z " stroke-width="1" stroke="#555555" fill="none" />
  <path d="M 66 83.5  C 64.32 83.5  63 82.18  63 80.5  C 63 78.82  64.32 77.5  66 77.5  C 67.68 77.5  69 78.82  69 80.5  C 69 82.18  67.68 83.5  66 83.5  " fill-rule="nonzero" fill="#555555" stroke="none" />
</svg>