<?xml version="1.0" encoding="utf-8"?>
<svg version="1.1" xmlns:xlink="http://www.w3.org/1999/xlink" width="12px" height="12px" viewBox="237 859.5  12 12" xmlns="http://www.w3.org/2000/svg">
  <path d="M 243 859.5  C 246.36 859.5  249 862.14  249 865.5  C 249 868.86  246.36 871.5  243 871.5  C 239.64 871.5  237 868.86  237 865.5  C 237 862.14  239.64 859.5  243 859.5  Z " fill-rule="nonzero" fill="#f0f0f0" stroke="none" />
  <path d="M 243 860  C 246.08 860  248.5 862.42  248.5 865.5  C 248.5 868.58  246.08 871  243 871  C 239.92 871  237.5 868.58  237.5 865.5  C 237.5 862.42  239.92 860  243 860  Z " stroke-width="1" stroke="#797979" fill="none" />
  <path d="M 243 868.5  C 241.32 868.5  240 867.18  240 865.5  C 240 863.82  241.32 862.5  243 862.5  C 244.68 862.5  246 863.82  246 865.5  C 246 867.18  244.68 868.5  243 868.5  " fill-rule="nonzero" fill="#797979" stroke="none" />
</svg>