<?xml version="1.0" encoding="utf-8"?>
<svg version="1.1" xmlns:xlink="http://www.w3.org/1999/xlink" width="170px" height="40px" xmlns="http://www.w3.org/2000/svg">
  <g transform="matrix(1 0 0 1 -330 -170 )">
    <path d="M 484.2250776405 170.5  C 484.2250776405 170.5  487.732828269962 170.912676544643  487.732828269962 170.912676544643  C 487.732828269962 170.912676544643  499.461183646145 190  499.461183646145 190  C 499.461183646145 190  487.732828269962 209.087323455357  487.732828269962 209.087323455357  C 487.732828269962 209.087323455357  484.2250776405 209.5  484.2250776405 209.5  C 484.2250776405 209.5  330.5 209.5  330.5 209.5  C 330.5 209.5  330.5 170.5  330.5 170.5  C 330.5 170.5  484.2250776405 170.5  484.2250776405 170.5  Z " fill-rule="nonzero" fill="#169bd5" stroke="none" />
    <path d="M 484.2250776405 170.5  C 484.2250776405 170.5  487.732828269962 170.912676544643  487.732828269962 170.912676544643  C 487.732828269962 170.912676544643  499.461183646145 190  499.461183646145 190  C 499.461183646145 190  487.732828269962 209.087323455357  487.732828269962 209.087323455357  C 487.732828269962 209.087323455357  484.2250776405 209.5  484.2250776405 209.5  C 484.2250776405 209.5  330.5 209.5  330.5 209.5  C 330.5 209.5  330.5 170.5  330.5 170.5  C 330.5 170.5  484.2250776405 170.5  484.2250776405 170.5  Z " stroke-width="1" stroke="#d7d7d7" fill="none" />
  </g>
</svg>