<?xml version="1.0" encoding="utf-8"?>
<svg version="1.1" xmlns:xlink="http://www.w3.org/1999/xlink" width="11px" height="13px" xmlns="http://www.w3.org/2000/svg">
  <g transform="matrix(1 0 0 1 -1153 -488 )">
    <path d="M 2.32747395833333 5.25948660714286  C 3.31098090277778 5.46744791666667  4.36848958333333 5.57142857142857  5.5 5.57142857142857  C 6.63151041666667 5.57142857142857  7.68901909722222 5.46744791666667  8.67252604166667 5.25948660714286  C 9.65603298611111 5.05152529761905  10.4318576388889 4.74441964285714  11 4.33816964285714  L 11 5.57142857142857  C 11 5.90513392857143  10.7541232638889 6.21465773809524  10.2623697916667 6.5  C 9.77061631944445 6.78534226190476  9.10221354166667 7.01143973214286  8.25716145833333 7.17829241071429  C 7.412109375 7.34514508928571  6.49305555555556 7.42857142857143  5.5 7.42857142857143  C 4.50694444444444 7.42857142857143  3.587890625 7.34514508928571  2.74283854166667 7.17829241071429  C 1.89778645833333 7.01143973214286  1.22938368055556 6.78534226190476  0.737630208333333 6.5  C 0.245876736111111 6.21465773809524  0 5.90513392857143  0 5.57142857142857  L 0 4.33816964285714  C 0.568142361111111 4.74441964285714  1.34396701388889 5.05152529761905  2.32747395833333 5.25948660714286  Z M 2.32747395833333 10.8309151785714  C 3.31098090277778 11.0388764880952  4.36848958333333 11.1428571428571  5.5 11.1428571428571  C 6.63151041666667 11.1428571428571  7.68901909722222 11.0388764880952  8.67252604166667 10.8309151785714  C 9.65603298611111 10.6229538690476  10.4318576388889 10.3158482142857  11 9.90959821428571  L 11 11.1428571428571  C 11 11.4765625  10.7541232638889 11.7860863095238  10.2623697916667 12.0714285714286  C 9.77061631944445 12.3567708333333  9.10221354166667 12.5828683035714  8.25716145833333 12.7497209821429  C 7.412109375 12.9165736607143  6.49305555555556 13  5.5 13  C 4.50694444444444 13  3.587890625 12.9165736607143  2.74283854166667 12.7497209821429  C 1.89778645833333 12.5828683035714  1.22938368055556 12.3567708333333  0.737630208333333 12.0714285714286  C 0.245876736111111 11.7860863095238  0 11.4765625  0 11.1428571428571  L 0 9.90959821428571  C 0.568142361111111 10.3158482142857  1.34396701388889 10.6229538690476  2.32747395833333 10.8309151785714  Z M 2.32747395833333 8.04520089285714  C 3.31098090277778 8.25316220238095  4.36848958333333 8.35714285714286  5.5 8.35714285714286  C 6.63151041666667 8.35714285714286  7.68901909722222 8.25316220238095  8.67252604166667 8.04520089285714  C 9.65603298611111 7.83723958333333  10.4318576388889 7.53013392857143  11 7.12388392857143  L 11 8.35714285714286  C 11 8.69084821428571  10.7541232638889 9.00037202380952  10.2623697916667 9.28571428571429  C 9.77061631944445 9.57105654761905  9.10221354166667 9.79715401785714  8.25716145833333 9.96400669642857  C 7.412109375 10.130859375  6.49305555555556 10.2142857142857  5.5 10.2142857142857  C 4.50694444444444 10.2142857142857  3.587890625 10.130859375  2.74283854166667 9.96400669642857  C 1.89778645833333 9.79715401785714  1.22938368055556 9.57105654761905  0.737630208333333 9.28571428571429  C 0.245876736111111 9.00037202380952  0 8.69084821428571  0 8.35714285714286  L 0 7.12388392857143  C 0.568142361111111 7.53013392857143  1.34396701388889 7.83723958333333  2.32747395833333 8.04520089285714  Z M 2.74283854166667 0.250279017857142  C 3.587890625 0.0834263392857141  4.50694444444444 0  5.5 0  C 6.49305555555556 0  7.412109375 0.0834263392857141  8.25716145833333 0.250279017857142  C 9.10221354166667 0.417131696428572  9.77061631944445 0.643229166666666  10.2623697916667 0.928571428571428  C 10.7541232638889 1.21391369047619  11 1.5234375  11 1.85714285714286  L 11 2.78571428571429  C 11 3.11941964285714  10.7541232638889 3.42894345238095  10.2623697916667 3.71428571428571  C 9.77061631944445 3.99962797619048  9.10221354166667 4.22572544642857  8.25716145833333 4.392578125  C 7.412109375 4.55943080357143  6.49305555555556 4.64285714285714  5.5 4.64285714285714  C 4.50694444444444 4.64285714285714  3.587890625 4.55943080357143  2.74283854166667 4.392578125  C 1.89778645833333 4.22572544642857  1.22938368055556 3.99962797619048  0.737630208333333 3.71428571428571  C 0.245876736111111 3.42894345238095  0 3.11941964285714  0 2.78571428571429  L 0 1.85714285714286  C 0 1.5234375  0.245876736111111 1.21391369047619  0.737630208333333 0.928571428571428  C 1.22938368055556 0.643229166666666  1.89778645833333 0.417131696428572  2.74283854166667 0.250279017857142  Z " fill-rule="nonzero" fill="#aaaaaa" stroke="none" transform="matrix(1 0 0 1 1153 488 )" />
  </g>
</svg>