<?xml version="1.0" encoding="utf-8"?>
<svg version="1.1" xmlns:xlink="http://www.w3.org/1999/xlink" width="13px" height="15px" xmlns="http://www.w3.org/2000/svg">
  <g transform="matrix(1 0 0 1 -1471 -725 )">
    <path d="M 2.75065104166667 6.06863839285714  C 3.91297743055556 6.30859375  5.16276041666667 6.42857142857143  6.5 6.42857142857143  C 7.83723958333333 6.42857142857143  9.08702256944444 6.30859375  10.2493489583333 6.06863839285714  C 11.4116753472222 5.82868303571428  12.3285590277778 5.47433035714286  13 5.00558035714286  L 13 6.42857142857143  C 13 6.81361607142857  12.7094184027778 7.17075892857143  12.1282552083333 7.5  C 11.5470920138889 7.82924107142857  10.7571614583333 8.09012276785714  9.75846354166667 8.28264508928572  C 8.759765625 8.47516741071428  7.67361111111111 8.57142857142857  6.5 8.57142857142857  C 5.32638888888889 8.57142857142857  4.240234375 8.47516741071428  3.24153645833333 8.28264508928572  C 2.24283854166667 8.09012276785714  1.45290798611111 7.82924107142857  0.871744791666667 7.5  C 0.290581597222222 7.17075892857143  0 6.81361607142857  0 6.42857142857143  L 0 5.00558035714286  C 0.671440972222222 5.47433035714286  1.58832465277778 5.82868303571428  2.75065104166667 6.06863839285714  Z M 2.75065104166667 12.4972098214286  C 3.91297743055556 12.7371651785714  5.16276041666667 12.8571428571429  6.5 12.8571428571429  C 7.83723958333333 12.8571428571429  9.08702256944444 12.7371651785714  10.2493489583333 12.4972098214286  C 11.4116753472222 12.2572544642857  12.3285590277778 11.9029017857143  13 11.4341517857143  L 13 12.8571428571429  C 13 13.2421875  12.7094184027778 13.5993303571429  12.1282552083333 13.9285714285714  C 11.5470920138889 14.2578125  10.7571614583333 14.5186941964286  9.75846354166667 14.7112165178571  C 8.759765625 14.9037388392857  7.67361111111111 15  6.5 15  C 5.32638888888889 15  4.240234375 14.9037388392857  3.24153645833333 14.7112165178571  C 2.24283854166667 14.5186941964286  1.45290798611111 14.2578125  0.871744791666667 13.9285714285714  C 0.290581597222222 13.5993303571429  0 13.2421875  0 12.8571428571429  L 0 11.4341517857143  C 0.671440972222222 11.9029017857143  1.58832465277778 12.2572544642857  2.75065104166667 12.4972098214286  Z M 2.75065104166667 9.28292410714286  C 3.91297743055556 9.52287946428571  5.16276041666667 9.64285714285714  6.5 9.64285714285714  C 7.83723958333333 9.64285714285714  9.08702256944444 9.52287946428571  10.2493489583333 9.28292410714286  C 11.4116753472222 9.04296875  12.3285590277778 8.68861607142857  13 8.21986607142857  L 13 9.64285714285714  C 13 10.0279017857143  12.7094184027778 10.3850446428571  12.1282552083333 10.7142857142857  C 11.5470920138889 11.0435267857143  10.7571614583333 11.3044084821429  9.75846354166667 11.4969308035714  C 8.759765625 11.689453125  7.67361111111111 11.7857142857143  6.5 11.7857142857143  C 5.32638888888889 11.7857142857143  4.240234375 11.689453125  3.24153645833333 11.4969308035714  C 2.24283854166667 11.3044084821429  1.45290798611111 11.0435267857143  0.871744791666667 10.7142857142857  C 0.290581597222222 10.3850446428571  0 10.0279017857143  0 9.64285714285714  L 0 8.21986607142857  C 0.671440972222222 8.68861607142857  1.58832465277778 9.04296875  2.75065104166667 9.28292410714286  Z M 3.24153645833333 0.288783482142856  C 4.240234375 0.0962611607142855  5.32638888888889 0  6.5 0  C 7.67361111111111 0  8.759765625 0.0962611607142855  9.75846354166667 0.288783482142856  C 10.7571614583333 0.481305803571429  11.5470920138889 0.742187499999999  12.1282552083333 1.07142857142857  C 12.7094184027778 1.40066964285714  13 1.7578125  13 2.14285714285714  L 13 3.21428571428571  C 13 3.59933035714286  12.7094184027778 3.95647321428571  12.1282552083333 4.28571428571429  C 11.5470920138889 4.61495535714286  10.7571614583333 4.87583705357143  9.75846354166667 5.068359375  C 8.759765625 5.26088169642857  7.67361111111111 5.35714285714286  6.5 5.35714285714286  C 5.32638888888889 5.35714285714286  4.240234375 5.26088169642857  3.24153645833333 5.068359375  C 2.24283854166667 4.87583705357143  1.45290798611111 4.61495535714286  0.871744791666667 4.28571428571429  C 0.290581597222222 3.95647321428571  0 3.59933035714286  0 3.21428571428571  L 0 2.14285714285714  C 0 1.7578125  0.290581597222222 1.40066964285714  0.871744791666667 1.07142857142857  C 1.45290798611111 0.742187499999999  2.24283854166667 0.481305803571429  3.24153645833333 0.288783482142856  Z " fill-rule="nonzero" fill="#555555" stroke="none" transform="matrix(1 0 0 1 1471 725 )" />
  </g>
</svg>