<?xml version="1.0" encoding="utf-8"?>
<svg version="1.1" xmlns:xlink="http://www.w3.org/1999/xlink" width="42px" height="42px" xmlns="http://www.w3.org/2000/svg">
  <g transform="matrix(1 0 0 1 -1284 -438 )">
    <path d="M 1305 438  C 1316.76 438  1326 447.24  1326 459  C 1326 470.76  1316.76 480  1305 480  C 1293.24 480  1284 470.76  1284 459  C 1284 447.24  1293.24 438  1305 438  Z " fill-rule="nonzero" fill="#ffffff" stroke="none" />
    <path d="M 1305 438.5  C 1316.48 438.5  1325.5 447.52  1325.5 459  C 1325.5 470.48  1316.48 479.5  1305 479.5  C 1293.52 479.5  1284.5 470.48  1284.5 459  C 1284.5 447.52  1293.52 438.5  1305 438.5  Z " stroke-width="1" stroke="#d7d7d7" fill="none" />
  </g>
</svg>