<?xml version="1.0" encoding="utf-8"?>
<svg version="1.1" xmlns:xlink="http://www.w3.org/1999/xlink" width="21px" height="21px" xmlns="http://www.w3.org/2000/svg">
  <g transform="matrix(1 0 0 1 -186 -354 )">
    <path d="M 17.322265625 11.115234375  C 17.486328125 10.951171875  17.568359375 10.74609375  17.568359375 10.5  C 17.568359375 10.25390625  17.486328125 10.048828125  17.322265625 9.884765625  L 16.078125 8.640625  L 11.12890625 3.69140625  C 10.96484375 3.52734375  10.759765625 3.4453125  10.513671875 3.4453125  C 10.267578125 3.4453125  10.0625 3.52734375  9.8984375 3.69140625  L 8.654296875 4.935546875  C 8.490234375 5.099609375  8.408203125 5.3046875  8.408203125 5.55078125  C 8.408203125 5.796875  8.490234375 6.001953125  8.654296875 6.166015625  L 11.23828125 8.75  L 4.375 8.75  C 4.13802083333333 8.75  3.93294270833333 8.83658854166667  3.759765625 9.009765625  C 3.58658854166667 9.18294270833333  3.5 9.38802083333333  3.5 9.625  L 3.5 11.375  C 3.5 11.6119791666667  3.58658854166667 11.8170572916667  3.759765625 11.990234375  C 3.93294270833333 12.1634114583333  4.13802083333333 12.25  4.375 12.25  L 11.23828125 12.25  L 8.654296875 14.833984375  C 8.48111979166667 15.0071614583333  8.39453125 15.2122395833333  8.39453125 15.44921875  C 8.39453125 15.6861979166667  8.48111979166667 15.8912760416667  8.654296875 16.064453125  L 9.8984375 17.30859375  C 10.0625 17.47265625  10.267578125 17.5546875  10.513671875 17.5546875  C 10.759765625 17.5546875  10.96484375 17.47265625  11.12890625 17.30859375  L 16.078125 12.359375  L 17.322265625 11.115234375  Z M 19.591796875 5.2294921875  C 20.5305989583333 6.83821614583333  21 8.59505208333333  21 10.5  C 21 12.4049479166667  20.5305989583333 14.1617838541667  19.591796875 15.7705078125  C 18.6529947916667 17.3792317708333  17.3792317708333 18.6529947916667  15.7705078125 19.591796875  C 14.1617838541667 20.5305989583333  12.4049479166667 21  10.5 21  C 8.59505208333333 21  6.83821614583333 20.5305989583333  5.2294921875 19.591796875  C 3.62076822916667 18.6529947916667  2.34700520833333 17.3792317708333  1.408203125 15.7705078125  C 0.469401041666667 14.1617838541667  0 12.4049479166667  0 10.5  C 0 8.59505208333333  0.469401041666667 6.83821614583333  1.408203125 5.2294921875  C 2.34700520833333 3.62076822916667  3.62076822916667 2.34700520833333  5.2294921875 1.408203125  C 6.83821614583333 0.469401041666665  8.59505208333333 0  10.5 0  C 12.4049479166667 0  14.1617838541667 0.469401041666665  15.7705078125 1.408203125  C 17.3792317708333 2.34700520833333  18.6529947916667 3.62076822916667  19.591796875 5.2294921875  Z " fill-rule="nonzero" fill="#aaaaaa" stroke="none" transform="matrix(1 0 0 1 186 354 )" />
  </g>
</svg>