<?xml version="1.0" encoding="utf-8"?>
<svg version="1.1" xmlns:xlink="http://www.w3.org/1999/xlink" width="126px" height="56px" xmlns="http://www.w3.org/2000/svg">
  <defs>
    <filter x="1749px" y="12px" width="126px" height="56px" filterUnits="userSpaceOnUse" id="filter1">
      <feOffset dx="0" dy="0" in="SourceAlpha" result="shadowOffsetInner" />
      <feGaussianBlur stdDeviation="1.5" in="shadowOffsetInner" result="shadowGaussian" />
      <feComposite in2="shadowGaussian" operator="atop" in="SourceAlpha" result="shadowComposite" />
      <feColorMatrix type="matrix" values="0 0 0 0 0  0 0 0 0 0  0 0 0 0 0  0 0 0 0.349019607843137 0  " in="shadowComposite" />
    </filter>
    <g id="widget2">
      <path d="M 1753 40  A 24 24 0 0 1 1777 16 L 1847 16  A 24 24 0 0 1 1871 40 A 24 24 0 0 1 1847 64 L 1777 64  A 24 24 0 0 1 1753 40 Z " fill-rule="nonzero" fill="#1b92c4" stroke="none" fill-opacity="0.67843137254902" />
      <path d="M 1752.5 40  A 24.5 24.5 0 0 1 1777 15.5 L 1847 15.5  A 24.5 24.5 0 0 1 1871.5 40 A 24.5 24.5 0 0 1 1847 64.5 L 1777 64.5  A 24.5 24.5 0 0 1 1752.5 40 Z " stroke-width="1" stroke="#333333" fill="none" stroke-opacity="0.0745098039215686" />
    </g>
  </defs>
  <g transform="matrix(1 0 0 1 -1749 -12 )">
    <use xlink:href="#widget2" filter="url(#filter1)" />
    <use xlink:href="#widget2" />
  </g>
</svg>