<?xml version="1.0" encoding="utf-8"?>
<svg version="1.1" xmlns:xlink="http://www.w3.org/1999/xlink" width="11px" height="11px" xmlns="http://www.w3.org/2000/svg">
  <g transform="matrix(1 0 0 1 -1807 -45 )">
    <path d="M 4.35416666666674 5.59309895833333  C 4.41623263888891 5.59309895833333  4.47113715277783 5.61697048611111  4.51888020833326 5.66471354166667  L 5.33528645833326 6.48111979166667  C 5.38302951388891 6.52886284722223  5.40690104166674 6.58376736111111  5.40690104166674 6.64583333333333  C 5.40690104166674 6.70789930555556  5.38302951388891 6.76280381944444  5.33528645833326 6.810546875  L 2.95768229166674 9.18815104166667  L 3.98893229166674 10.2194010416667  C 4.07964409722217 10.3101128472222  4.125 10.4175347222222  4.125 10.5416666666667  C 4.125 10.6657986111111  4.07964409722217 10.7732204861111  3.98893229166674 10.8639322916667  C 3.89822048611109 10.9546440972222  3.79079861111109 11  3.66666666666674 11  L 0.458333333333258 11  C 0.334201388888914 11  0.226779513888914 10.9546440972222  0.136067708333258 10.8639322916667  C 0.0453559027778283 10.7732204861111  0 10.6657986111111  0 10.5416666666667  L 0 7.33333333333333  C 0 7.20920138888889  0.0453559027778283 7.10177951388889  0.136067708333258 7.01106770833333  C 0.226779513888914 6.92035590277777  0.334201388888914 6.875  0.458333333333258 6.875  C 0.582465277777828 6.875  0.689887152777828 6.92035590277777  0.780598958333258 7.01106770833333  L 1.81184895833326 8.04231770833333  L 4.189453125 5.66471354166667  C 4.23719618055566 5.61697048611111  4.29210069444434 5.59309895833333  4.35416666666674 5.59309895833333  Z M 7.33333333333326 0  L 10.5416666666667 0  C 10.6657986111111 0  10.7732204861111 0.0453559027777715  10.8639322916667 0.136067708333329  C 10.9546440972222 0.226779513888886  11 0.334201388888886  11 0.458333333333329  L 11 3.66666666666667  C 11 3.79079861111111  10.9546440972222 3.89822048611111  10.8639322916667 3.98893229166667  C 10.7732204861111 4.07964409722223  10.6657986111111 4.125  10.5416666666667 4.125  C 10.4175347222222 4.125  10.3101128472222 4.07964409722223  10.2194010416667 3.98893229166667  L 9.18815104166674 2.95768229166667  L 6.810546875 5.33528645833333  C 6.76280381944434 5.38302951388889  6.70789930555566 5.40690104166667  6.64583333333326 5.40690104166667  C 6.58376736111109 5.40690104166667  6.52886284722217 5.38302951388889  6.48111979166674 5.33528645833333  L 5.66471354166674 4.51888020833333  C 5.61697048611109 4.47113715277777  5.59309895833326 4.41623263888889  5.59309895833326 4.35416666666667  C 5.59309895833326 4.29210069444444  5.61697048611109 4.23719618055556  5.66471354166674 4.189453125  L 8.04231770833326 1.81184895833333  L 7.01106770833326 0.780598958333329  C 6.92035590277783 0.689887152777771  6.875 0.582465277777771  6.875 0.458333333333329  C 6.875 0.334201388888886  6.92035590277783 0.226779513888886  7.01106770833326 0.136067708333329  C 7.10177951388891 0.0453559027777715  7.20920138888891 0  7.33333333333326 0  Z M 5.40690104166674 4.35416666666667  C 5.40690104166674 4.41623263888889  5.38302951388891 4.47113715277777  5.33528645833326 4.51888020833333  L 4.51888020833326 5.33528645833333  C 4.47113715277783 5.38302951388889  4.41623263888891 5.40690104166667  4.35416666666674 5.40690104166667  C 4.29210069444434 5.40690104166667  4.23719618055566 5.38302951388889  4.189453125 5.33528645833333  L 1.81184895833326 2.95768229166667  L 0.780598958333258 3.98893229166667  C 0.689887152777828 4.07964409722223  0.582465277777828 4.125  0.458333333333258 4.125  C 0.334201388888914 4.125  0.226779513888914 4.07964409722223  0.136067708333258 3.98893229166667  C 0.0453559027778283 3.89822048611111  0 3.79079861111111  0 3.66666666666667  L 0 0.458333333333329  C 0 0.334201388888886  0.0453559027778283 0.226779513888886  0.136067708333258 0.136067708333329  C 0.226779513888914 0.0453559027777715  0.334201388888914 0  0.458333333333258 0  L 3.66666666666674 0  C 3.79079861111109 0  3.89822048611109 0.0453559027777715  3.98893229166674 0.136067708333329  C 4.07964409722217 0.226779513888886  4.125 0.334201388888886  4.125 0.458333333333329  C 4.125 0.582465277777771  4.07964409722217 0.689887152777771  3.98893229166674 0.780598958333329  L 2.95768229166674 1.81184895833333  L 5.33528645833326 4.189453125  C 5.38302951388891 4.23719618055556  5.40690104166674 4.29210069444444  5.40690104166674 4.35416666666667  Z M 11 7.33333333333333  L 11 10.5416666666667  C 11 10.6657986111111  10.9546440972222 10.7732204861111  10.8639322916667 10.8639322916667  C 10.7732204861111 10.9546440972222  10.6657986111111 11  10.5416666666667 11  L 7.33333333333326 11  C 7.20920138888891 11  7.10177951388891 10.9546440972222  7.01106770833326 10.8639322916667  C 6.92035590277783 10.7732204861111  6.875 10.6657986111111  6.875 10.5416666666667  C 6.875 10.4175347222222  6.92035590277783 10.3101128472222  7.01106770833326 10.2194010416667  L 8.04231770833326 9.18815104166667  L 5.66471354166674 6.810546875  C 5.61697048611109 6.76280381944444  5.59309895833326 6.70789930555556  5.59309895833326 6.64583333333333  C 5.59309895833326 6.58376736111111  5.61697048611109 6.52886284722223  5.66471354166674 6.48111979166667  L 6.48111979166674 5.66471354166667  C 6.52886284722217 5.61697048611111  6.58376736111109 5.59309895833333  6.64583333333326 5.59309895833333  C 6.70789930555566 5.59309895833333  6.76280381944434 5.61697048611111  6.810546875 5.66471354166667  L 9.18815104166674 8.04231770833333  L 10.2194010416667 7.01106770833333  C 10.3101128472222 6.92035590277777  10.4175347222222 6.875  10.5416666666667 6.875  C 10.6657986111111 6.875  10.7732204861111 6.92035590277777  10.8639322916667 7.01106770833333  C 10.9546440972222 7.10177951388889  11 7.20920138888889  11 7.33333333333333  Z " fill-rule="nonzero" fill="#f2f2f2" stroke="none" transform="matrix(1 0 0 1 1807 45 )" />
  </g>
</svg>