<?xml version="1.0" encoding="utf-8"?>
<svg version="1.1" xmlns:xlink="http://www.w3.org/1999/xlink" width="11px" height="11px" xmlns="http://www.w3.org/2000/svg">
  <g transform="matrix(1 0 0 1 -1848 -45 )">
    <path d="M 6.79622395833332 6.79622395833328  C 7.154296875 6.43815104166672  7.33333333333332 6.00607638888888  7.33333333333332 5.5  C 7.33333333333332 4.99392361111112  7.154296875 4.56184895833328  6.79622395833332 4.20377604166672  C 6.43815104166668 3.845703125  6.0060763888889 3.66666666666672  5.5 3.66666666666672  C 4.9939236111111 3.66666666666672  4.56184895833332 3.845703125  4.20377604166668 4.20377604166672  C 3.845703125 4.56184895833328  3.66666666666668 4.99392361111112  3.66666666666668 5.5  C 3.66666666666668 6.00607638888888  3.845703125 6.43815104166672  4.20377604166668 6.79622395833328  C 4.56184895833332 7.154296875  4.9939236111111 7.33333333333328  5.5 7.33333333333328  C 6.0060763888889 7.33333333333328  6.43815104166668 7.154296875  6.79622395833332 6.79622395833328  Z M 10.9427083333333 4.55110677083328  C 10.9809027777778 4.60123697916672  11 4.6573350694444  11 4.71940104166672  L 11 6.30924479166672  C 11 6.36653645833328  10.9809027777778 6.42144097222224  10.9427083333333 6.47395833333328  C 10.9045138888889 6.5264756944444  10.8567708333333 6.5575086805556  10.7994791666667 6.56705729166672  L 9.474609375 6.767578125  C 9.38389756944444 7.025390625  9.2907986111111 7.24262152777776  9.1953125 7.41927083333328  C 9.36241319444444 7.65798611111112  9.61783854166668 7.9874131944444  9.96158854166668 8.40755208333328  C 10.0093315972222 8.46484375  10.033203125 8.5245225694444  10.033203125 8.58658854166672  C 10.033203125 8.64865451388888  10.01171875 8.70355902777776  9.96875 8.75130208333328  C 9.83984375 8.92795138888888  9.603515625 9.18576388888888  9.259765625 9.52473958333328  C 8.916015625 9.86371527777776  8.6916232638889 10.033203125  8.58658854166668 10.033203125  C 8.529296875 10.033203125  8.46723090277778 10.01171875  8.400390625 9.96875  L 7.412109375 9.1953125  C 7.20203993055556 9.30512152777776  6.98480902777778 9.39583333333328  6.76041666666668 9.46744791666672  C 6.68402777777778 10.1167534722222  6.61480034722222 10.5607638888889  6.552734375 10.7994791666667  C 6.5193142361111 10.9331597222222  6.4333767361111 11  6.294921875 11  L 4.705078125 11  C 4.63823784722222 11  4.57975260416668 10.9797092013889  4.52962239583332 10.9391276041667  C 4.4794921875 10.8985460069444  4.45203993055556 10.8472222222222  4.447265625 10.78515625  L 4.24674479166668 9.46744791666672  C 4.01280381944444 9.39105902777776  3.79796006944444 9.302734375  3.60221354166668 9.20247395833328  L 2.59244791666668 9.96875  C 2.5447048611111 10.01171875  2.48502604166668 10.033203125  2.41341145833332 10.033203125  C 2.34657118055556 10.033203125  2.2868923611111 10.0069444444444  2.234375 9.95442708333328  C 1.6328125 9.41015625  1.23893229166668 9.00911458333328  1.052734375 8.75130208333328  C 1.0193142361111 8.70355902777776  1.00260416666668 8.64865451388888  1.00260416666668 8.58658854166672  C 1.00260416666668 8.529296875  1.0217013888889 8.47439236111112  1.05989583333332 8.421875  C 1.13151041666668 8.32161458333328  1.25325520833332 8.16286892361112  1.42513020833332 7.94563802083328  C 1.59700520833332 7.7284071180556  1.72591145833332 7.56011284722224  1.81184895833332 7.44075520833328  C 1.68294270833332 7.2020399305556  1.58506944444444 6.9657118055556  1.51822916666668 6.73177083333328  L 0.207682291666679 6.53841145833328  C 0.14561631944444 6.52886284722224  0.0954861111111009 6.4990234375  0.0572916666666789 6.44889322916672  C 0.0190972222222202 6.39876302083328  0 6.3426649305556  0 6.28059895833328  L 0 4.69075520833328  C 0 4.63346354166672  0.0190972222222202 4.57855902777776  0.0572916666666789 4.52604166666672  C 0.0954861111111009 4.4735243055556  0.140842013888899 4.4424913194444  0.193359375 4.43294270833328  L 1.525390625 4.232421875  C 1.59223090277778 4.0128038194444  1.6853298611111 3.79318576388888  1.8046875 3.57356770833328  C 1.61371527777778 3.30143229166672  1.35828993055556 2.97200520833328  1.03841145833332 2.58528645833328  C 0.99066840277778 2.52799479166672  0.966796875 2.470703125  0.966796875 2.41341145833328  C 0.966796875 2.36566840277776  0.98828125 2.31076388888888  1.03125 2.24869791666672  C 1.15538194444444 2.07682291666672  1.39051649305556 1.8202039930556  1.73665364583332 1.47884114583328  C 2.0827907986111 1.13747829861112  2.3083767361111 0.966796875  2.41341145833332 0.966796875  C 2.47547743055556 0.966796875  2.53754340277778 0.990668402777761  2.599609375 1.03841145833328  L 3.587890625 1.8046875  C 3.79796006944444 1.69487847222224  4.01519097222222 1.60416666666672  4.23958333333332 1.53255208333328  C 4.31597222222222 0.883246527777761  4.38519965277778 0.439236111111119  4.447265625 0.200520833333284  C 4.4806857638889 0.0668402777777614  4.5666232638889 0  4.705078125 0  L 6.294921875 0  C 6.36176215277778 0  6.42024739583332 0.0202907986111193  6.47037760416668 0.0608723958332843  C 6.5205078125 0.101453993055596  6.54796006944444 0.152777777777761  6.552734375 0.21484375  L 6.75325520833332 1.53255208333328  C 6.98719618055556 1.60894097222224  7.20203993055556 1.697265625  7.39778645833332 1.79752604166672  L 8.41471354166668 1.03125  C 8.45768229166668 0.98828125  8.51497395833332 0.966796875  8.58658854166668 0.966796875  C 8.6486545138889 0.966796875  8.70833333333332 0.990668402777761  8.765625 1.03841145833328  C 9.38151041666668 1.6065538194444  9.775390625 2.01236979166672  9.947265625 2.255859375  C 9.9806857638889 2.2940538194444  9.99739583333332 2.3465711805556  9.99739583333332 2.41341145833328  C 9.99739583333332 2.470703125  9.9782986111111 2.52560763888888  9.94010416666668 2.578125  C 9.86848958333332 2.67838541666672  9.74674479166668 2.83713107638888  9.57486979166668 3.05436197916672  C 9.40299479166668 3.2715928819444  9.27408854166668 3.43988715277776  9.18815104166668 3.55924479166672  C 9.3122829861111 3.7979600694444  9.41015625 4.03190104166672  9.48177083333332 4.26106770833328  L 10.7923177083333 4.46158854166672  C 10.8543836805556 4.47113715277776  10.9045138888889 4.5009765625  10.9427083333333 4.55110677083328  Z " fill-rule="nonzero" fill="#f2f2f2" stroke="none" transform="matrix(1 0 0 1 1848 45 )" />
  </g>
</svg>