<?xml version="1.0" encoding="utf-8"?>
<svg version="1.1" xmlns:xlink="http://www.w3.org/1999/xlink" width="14px" height="11px" xmlns="http://www.w3.org/2000/svg">
  <g transform="matrix(1 0 0 1 -1826 -45 )">
    <path d="M 2.70703125 7.70703125000008  C 2.90234374999999 7.51171875000005  3 7.27604166666667  3 6.99999999999993  C 3 6.72395833333338  2.90234374999999 6.48828125  2.70703125 6.29296874999997  C 2.51171875000001 6.09765624999993  2.27604166666667 5.99999999999992  1.99999999999999 5.99999999999992  C 1.72395833333334 5.99999999999992  1.48828124999999 6.09765624999993  1.29296875 6.29296874999997  C 1.09765624999999 6.48828125  1.00000000000001 6.72395833333338  1.00000000000001 6.99999999999993  C 1.00000000000001 7.27604166666667  1.09765624999999 7.51171875000005  1.29296875 7.70703125000008  C 1.48828124999999 7.90234374999993  1.72395833333334 7.99999999999995  1.99999999999999 7.99999999999995  C 2.27604166666667 7.99999999999995  2.51171875000001 7.90234374999993  2.70703125 7.70703125000008  Z M 4.20703125000001 4.20703124999993  C 4.40234375 4.01171875000008  4.50000000000001 3.7760416666667  4.50000000000001 3.49999999999997  C 4.50000000000001 3.22395833333342  4.40234375 2.98828125000003  4.20703125000001 2.79296875  C 4.01171875 2.59765624999997  3.77604166666668 2.49999999999995  3.5 2.49999999999995  C 3.22395833333332 2.49999999999995  2.98828125 2.59765624999997  2.79296874999999 2.79296875  C 2.59765625 2.98828125000003  2.49999999999999 3.22395833333342  2.49999999999999 3.49999999999997  C 2.49999999999999 3.7760416666667  2.59765625 4.01171875000008  2.79296874999999 4.20703124999993  C 2.98828125 4.40234374999997  3.22395833333332 4.49999999999998  3.5 4.49999999999998  C 3.77604166666668 4.49999999999998  4.01171875 4.40234374999997  4.20703125000001 4.20703124999993  Z M 8.40624999999999 7.96874999999997  C 8.29166666666666 7.67187500000003  8.10416666666666 7.43489583333342  7.84374999999999 7.25781249999993  L 8.6328125 4.27343749999997  C 8.66406249999999 4.13802083333325  8.64453125000001 4.01171875000008  8.57421875000001 3.89453124999992  C 8.50390625 3.77734374999993  8.40364583333334 3.7005208333333  8.27343750000001 3.66406250000002  C 8.14322916666667 3.62760416666673  8.01822916666666 3.64453125000005  7.89843749999999 3.71484374999997  C 7.77864583333333 3.78515625000007  7.70052083333334 3.88802083333338  7.6640625 4.02343749999992  L 6.87499999999999 7.00781250000007  C 6.5625 7.03385416666675  6.28385416666667 7.14713541666667  6.03906250000001 7.34765625  C 5.79427083333333 7.54817708333333  5.63020833333333 7.80468749999992  5.54687500000001 8.11718749999993  C 5.44270833333334 8.5182291666666  5.49479166666666 8.89843750000007  5.70312500000001 9.25781249999997  C 5.91145833333333 9.61718750000005  6.21614583333334 9.84895833333337  6.6171875 9.95312499999991  C 7.01822916666666 10.0572916666667  7.39843750000001 10.0052083333333  7.7578125 9.796875  C 8.11718749999999 9.58854166666672  8.34895833333334 9.28385416666665  8.45312500000001 8.88281249999998  C 8.53645833333333 8.57031249999997  8.52083333333334 8.26562500000009  8.40624999999999 7.96874999999997  Z M 12.70703125 7.70703125000008  C 12.90234375 7.51171875000005  13 7.27604166666667  13 6.99999999999993  C 13 6.72395833333338  12.90234375 6.48828125  12.70703125 6.29296874999997  C 12.51171875 6.09765624999993  12.2760416666667 5.99999999999992  12 5.99999999999992  C 11.7239583333333 5.99999999999992  11.48828125 6.09765624999993  11.29296875 6.29296874999997  C 11.09765625 6.48828125  11 6.72395833333338  11 6.99999999999993  C 11 7.27604166666667  11.09765625 7.51171875000005  11.29296875 7.70703125000008  C 11.48828125 7.90234374999993  11.7239583333333 7.99999999999995  12 7.99999999999995  C 12.2760416666667 7.99999999999995  12.51171875 7.90234374999993  12.70703125 7.70703125000008  Z M 7.70703124999999 2.70703125  C 7.90234375 2.51171874999997  8.00000000000001 2.27604166666658  8.00000000000001 2.00000000000003  C 8.00000000000001 1.7239583333333  7.90234375 1.48828124999992  7.70703124999999 1.29296875000007  C 7.51171875 1.09765625000003  7.27604166666668 1.00000000000002  7 1.00000000000002  C 6.72395833333333 1.00000000000002  6.48828125 1.09765625000003  6.29296874999999 1.29296875000007  C 6.09765625 1.48828124999992  5.99999999999999 1.7239583333333  5.99999999999999 2.00000000000003  C 5.99999999999999 2.27604166666658  6.09765625 2.51171874999997  6.29296874999999 2.70703125  C 6.48828125 2.90234375000003  6.72395833333333 3.00000000000005  7 3.00000000000005  C 7.27604166666668 3.00000000000005  7.51171875 2.90234375000003  7.70703124999999 2.70703125  Z M 11.20703125 4.20703124999993  C 11.40234375 4.01171875000008  11.5 3.7760416666667  11.5 3.49999999999997  C 11.5 3.22395833333342  11.40234375 2.98828125000003  11.20703125 2.79296875  C 11.01171875 2.59765624999997  10.7760416666667 2.49999999999995  10.5 2.49999999999995  C 10.2239583333333 2.49999999999995  9.98828125 2.59765624999997  9.79296875000001 2.79296875  C 9.59765625 2.98828125000003  9.49999999999999 3.22395833333342  9.49999999999999 3.49999999999997  C 9.49999999999999 3.7760416666667  9.59765625 4.01171875000008  9.79296875000001 4.20703124999993  C 9.98828125 4.40234374999997  10.2239583333333 4.49999999999998  10.5 4.49999999999998  C 10.7760416666667 4.49999999999998  11.01171875 4.40234374999997  11.20703125 4.20703124999993  Z M 13.4453125 4.28124999999992  C 13.8151041666667 5.1458333333334  14 6.05208333333328  14 6.99999999999993  C 14 8.35937500000003  13.6328125 9.61718750000005  12.8984375 10.7734375  C 12.7994791666667 10.9244791666666  12.6588541666667 11  12.4765625 11  L 1.5234375 11  C 1.34114583333334 11  1.20052083333332 10.9244791666666  1.1015625 10.7734375  C 0.367187499999993 9.62239583333335  0 8.36458333333333  0 6.99999999999993  C 0 6.05208333333328  0.184895833333334 5.1458333333334  0.554687500000003 4.28124999999992  C 0.924479166666672 3.41666666666662  1.421875 2.67187499999995  2.04687500000001 2.04687499999992  C 2.671875 1.42187500000007  3.41666666666666 0.924479166666616  4.28125000000001 0.554687499999933  C 5.14583333333333 0.184895833333249  6.05208333333334 0  7 0  C 7.94791666666666 0  8.85416666666667 0.184895833333249  9.71874999999999 0.554687499999933  C 10.5833333333333 0.924479166666616  11.328125 1.42187500000007  11.953125 2.04687499999992  C 12.578125 2.67187499999995  13.0755208333333 3.41666666666662  13.4453125 4.28124999999992  Z " fill-rule="nonzero" fill="#f2f2f2" stroke="none" transform="matrix(1 0 0 1 1826 45 )" />
  </g>
</svg>