<?xml version="1.0" encoding="utf-8"?>
<svg version="1.1" xmlns:xlink="http://www.w3.org/1999/xlink" width="12px" height="12px" viewBox="610 300.5  12 12" xmlns="http://www.w3.org/2000/svg">
  <path d="M 616 300.5  C 619.36 300.5  622 303.14  622 306.5  C 622 309.86  619.36 312.5  616 312.5  C 612.64 312.5  610 309.86  610 306.5  C 610 303.14  612.64 300.5  616 300.5  Z " fill-rule="nonzero" fill="#f0f0f0" stroke="none" />
  <path d="M 616 301  C 619.08 301  621.5 303.42  621.5 306.5  C 621.5 309.58  619.08 312  616 312  C 612.92 312  610.5 309.58  610.5 306.5  C 610.5 303.42  612.92 301  616 301  Z " stroke-width="1" stroke="#555555" fill="none" />
  <path d="M 616 309.5  C 614.32 309.5  613 308.18  613 306.5  C 613 304.82  614.32 303.5  616 303.5  C 617.68 303.5  619 304.82  619 306.5  C 619 308.18  617.68 309.5  616 309.5  " fill-rule="nonzero" fill="#555555" stroke="none" />
</svg>