<?xml version="1.0" encoding="utf-8"?>
<svg version="1.1" xmlns:xlink="http://www.w3.org/1999/xlink" width="12px" height="12px" viewBox="690 212.5  12 12" xmlns="http://www.w3.org/2000/svg">
  <path d="M 696 212.5  C 699.36 212.5  702 215.14  702 218.5  C 702 221.86  699.36 224.5  696 224.5  C 692.64 224.5  690 221.86  690 218.5  C 690 215.14  692.64 212.5  696 212.5  Z " fill-rule="nonzero" fill="#ffffff" stroke="none" />
  <path d="M 696 213  C 699.08 213  701.5 215.42  701.5 218.5  C 701.5 221.58  699.08 224  696 224  C 692.92 224  690.5 221.58  690.5 218.5  C 690.5 215.42  692.92 213  696 213  Z " stroke-width="1" stroke="#555555" fill="none" />
  <path d="M 696 221.5  C 694.32 221.5  693 220.18  693 218.5  C 693 216.82  694.32 215.5  696 215.5  C 697.68 215.5  699 216.82  699 218.5  C 699 220.18  697.68 221.5  696 221.5  " fill-rule="nonzero" fill="#555555" stroke="none" />
</svg>