<?xml version="1.0" encoding="utf-8"?>
<svg version="1.1" xmlns:xlink="http://www.w3.org/1999/xlink" width="22px" height="22px" xmlns="http://www.w3.org/2000/svg">
  <defs>
    <filter x="2858px" y="20px" width="22px" height="22px" filterUnits="userSpaceOnUse" id="filter20">
      <feOffset dx="0" dy="0" in="SourceAlpha" result="shadowOffsetInner" />
      <feGaussianBlur stdDeviation="2" in="shadowOffsetInner" result="shadowGaussian" />
      <feComposite in2="shadowGaussian" operator="atop" in="SourceAlpha" result="shadowComposite" />
      <feColorMatrix type="matrix" values="0 0 0 0 0  0 0 0 0 0  0 0 0 0 0  0 0 0 0.149019607843137 0  " in="shadowComposite" />
    </filter>
    <g id="widget21">
      <path d="M 2869 25  C 2872.36 25  2875 27.64  2875 31  C 2875 34.36  2872.36 37  2869 37  C 2865.64 37  2863 34.36  2863 31  C 2863 27.64  2865.64 25  2869 25  Z " fill-rule="nonzero" fill="#1890ff" stroke="none" />
      <path d="M 2869 25  C 2872.36 25  2875 27.64  2875 31  C 2875 34.36  2872.36 37  2869 37  C 2865.64 37  2863 34.36  2863 31  C 2863 27.64  2865.64 25  2869 25  Z " stroke-width="2" stroke="#ffffff" fill="none" />
    </g>
  </defs>
  <g transform="matrix(1 0 0 1 -2858 -20 )">
    <use xlink:href="#widget21" filter="url(#filter20)" />
    <use xlink:href="#widget21" />
  </g>
</svg>