<?xml version="1.0" encoding="utf-8"?>
<svg version="1.1" xmlns:xlink="http://www.w3.org/1999/xlink" width="10px" height="10px" xmlns="http://www.w3.org/2000/svg">
  <g transform="matrix(1 0 0 1 -1942 -27 )">
    <path d="M 1947 28  C 1949.24 28  1951 29.76  1951 32  C 1951 34.24  1949.24 36  1947 36  C 1944.76 36  1943 34.24  1943 32  C 1943 29.76  1944.76 28  1947 28  Z " fill-rule="nonzero" fill="#1890ff" stroke="none" />
    <path d="M 1947 28  C 1949.24 28  1951 29.76  1951 32  C 1951 34.24  1949.24 36  1947 36  C 1944.76 36  1943 34.24  1943 32  C 1943 29.76  1944.76 28  1947 28  Z " stroke-width="2" stroke="#ffffff" fill="none" />
  </g>
</svg>