<?xml version="1.0" encoding="utf-8"?>
<svg version="1.1" xmlns:xlink="http://www.w3.org/1999/xlink" width="258px" height="10px" preserveAspectRatio="xMinYMid meet" viewBox="535 1885  258 8" xmlns="http://www.w3.org/2000/svg">
  <path d="M 788.5 1871  L 788.5 1884  A 5 5 0 0 1 783.5 1889.5 L 545 1889.5  A 5 5 0 0 0 540.5 1894.5 L 540.5 1983  A 5 5 0 0 0 545.5 1988.5 L 619 1988.5  A 5 5 0 0 1 624.5 1993.5 L 624.5 2003  " stroke-width="1" stroke="#027db4" fill="none" />
  <path d="M 629.146446609407 1997.94644660941  L 624.5 2002.59289321881  L 619.853553390593 1997.94644660941  L 619.146446609407 1998.65355339059  L 624.146446609407 2003.65355339059  L 624.5 2004.00710678119  L 624.853553390593 2003.65355339059  L 629.853553390593 1998.65355339059  L 629.146446609407 1997.94644660941  Z " fill-rule="nonzero" fill="#027db4" stroke="none" />
</svg>