<?xml version="1.0" encoding="utf-8"?>
<svg version="1.1" xmlns:xlink="http://www.w3.org/1999/xlink" width="204px" height="10px" preserveAspectRatio="xMinYMid meet" viewBox="701 2172  204 8" xmlns="http://www.w3.org/2000/svg">
  <path d="M 900.5 2146  L 900.5 2171  A 5 5 0 0 1 895.5 2176.5 L 711 2176.5  A 5 5 0 0 0 706.5 2181.5 L 706.5 2255  A 5 5 0 0 1 701.5 2260.5 L 629 2260.5  A 5 5 0 0 0 624.5 2265.5 L 624.5 2279  " stroke-width="1" stroke="#027db4" fill="none" />
  <path d="M 629.146446609407 2273.94644660941  L 624.5 2278.59289321881  L 619.853553390593 2273.94644660941  L 619.146446609407 2274.65355339059  L 624.146446609407 2279.65355339059  L 624.5 2280.00710678119  L 624.853553390593 2279.65355339059  L 629.853553390593 2274.65355339059  L 629.146446609407 2273.94644660941  Z " fill-rule="nonzero" fill="#027db4" stroke="none" />
</svg>