<?xml version="1.0" encoding="utf-8"?>
<svg version="1.1" xmlns:xlink="http://www.w3.org/1999/xlink" width="12px" height="12px" viewBox="323 105.5  12 12" xmlns="http://www.w3.org/2000/svg">
  <path d="M 329 105.5  C 332.36 105.5  335 108.14  335 111.5  C 335 114.86  332.36 117.5  329 117.5  C 325.64 117.5  323 114.86  323 111.5  C 323 108.14  325.64 105.5  329 105.5  Z " fill-rule="nonzero" fill="#f0f0f0" stroke="none" />
  <path d="M 329 106  C 332.08 106  334.5 108.42  334.5 111.5  C 334.5 114.58  332.08 117  329 117  C 325.92 117  323.5 114.58  323.5 111.5  C 323.5 108.42  325.92 106  329 106  Z " stroke-width="1" stroke="#797979" fill="none" />
  <path d="M 329 114.5  C 327.32 114.5  326 113.18  326 111.5  C 326 109.82  327.32 108.5  329 108.5  C 330.68 108.5  332 109.82  332 111.5  C 332 113.18  330.68 114.5  329 114.5  " fill-rule="nonzero" fill="#797979" stroke="none" />
</svg>