<?xml version="1.0" encoding="utf-8"?>
<svg version="1.1" xmlns:xlink="http://www.w3.org/1999/xlink" width="12px" height="12px" viewBox="430 105.5  12 12" xmlns="http://www.w3.org/2000/svg">
  <path d="M 436 105.5  C 439.36 105.5  442 108.14  442 111.5  C 442 114.86  439.36 117.5  436 117.5  C 432.64 117.5  430 114.86  430 111.5  C 430 108.14  432.64 105.5  436 105.5  Z " fill-rule="nonzero" fill="#ffffff" stroke="none" />
  <path d="M 436 106  C 439.08 106  441.5 108.42  441.5 111.5  C 441.5 114.58  439.08 117  436 117  C 432.92 117  430.5 114.58  430.5 111.5  C 430.5 108.42  432.92 106  436 106  Z " stroke-width="1" stroke="#797979" fill="none" />
  <path d="M 436 114.5  C 434.32 114.5  433 113.18  433 111.5  C 433 109.82  434.32 108.5  436 108.5  C 437.68 108.5  439 109.82  439 111.5  C 439 113.18  437.68 114.5  436 114.5  " fill-rule="nonzero" fill="#797979" stroke="none" />
</svg>