<?xml version="1.0" encoding="utf-8"?>
<svg version="1.1" xmlns:xlink="http://www.w3.org/1999/xlink" width="12px" height="12px" viewBox="212 105.5  12 12" xmlns="http://www.w3.org/2000/svg">
  <path d="M 218 105.5  C 221.36 105.5  224 108.14  224 111.5  C 224 114.86  221.36 117.5  218 117.5  C 214.64 117.5  212 114.86  212 111.5  C 212 108.14  214.64 105.5  218 105.5  Z " fill-rule="nonzero" fill="#f0f0f0" stroke="none" />
  <path d="M 218 106  C 221.08 106  223.5 108.42  223.5 111.5  C 223.5 114.58  221.08 117  218 117  C 214.92 117  212.5 114.58  212.5 111.5  C 212.5 108.42  214.92 106  218 106  Z " stroke-width="1" stroke="#797979" fill="none" />
  <path d="M 218 114.5  C 216.32 114.5  215 113.18  215 111.5  C 215 109.82  216.32 108.5  218 108.5  C 219.68 108.5  221 109.82  221 111.5  C 221 113.18  219.68 114.5  218 114.5  " fill-rule="nonzero" fill="#797979" stroke="none" />
</svg>