<?xml version="1.0" encoding="utf-8"?>
<svg version="1.1" xmlns:xlink="http://www.w3.org/1999/xlink" width="12px" height="12px" viewBox="726 716.5  12 12" xmlns="http://www.w3.org/2000/svg">
  <path d="M 732 716.5  C 735.36 716.5  738 719.14  738 722.5  C 738 725.86  735.36 728.5  732 728.5  C 728.64 728.5  726 725.86  726 722.5  C 726 719.14  728.64 716.5  732 716.5  Z " fill-rule="nonzero" fill="#f0f0f0" stroke="none" />
  <path d="M 732 717  C 735.08 717  737.5 719.42  737.5 722.5  C 737.5 725.58  735.08 728  732 728  C 728.92 728  726.5 725.58  726.5 722.5  C 726.5 719.42  728.92 717  732 717  Z " stroke-width="1" stroke="#7f7f7f" fill="none" />
  <path d="M 732 725.5  C 730.32 725.5  729 724.18  729 722.5  C 729 720.82  730.32 719.5  732 719.5  C 733.68 719.5  735 720.82  735 722.5  C 735 724.18  733.68 725.5  732 725.5  " fill-rule="nonzero" fill="#7f7f7f" stroke="none" />
</svg>