<?xml version="1.0" encoding="utf-8"?>
<svg version="1.1" xmlns:xlink="http://www.w3.org/1999/xlink" width="12px" height="12px" viewBox="273 7.5  12 12" xmlns="http://www.w3.org/2000/svg">
  <path d="M 279 7.5  C 282.36 7.5  285 10.14  285 13.5  C 285 16.86  282.36 19.5  279 19.5  C 275.64 19.5  273 16.86  273 13.5  C 273 10.14  275.64 7.5  279 7.5  Z " fill-rule="nonzero" fill="#f0f0f0" stroke="none" />
  <path d="M 279 8  C 282.08 8  284.5 10.42  284.5 13.5  C 284.5 16.58  282.08 19  279 19  C 275.92 19  273.5 16.58  273.5 13.5  C 273.5 10.42  275.92 8  279 8  Z " stroke-width="1" stroke="#d7d7d7" fill="none" />
  <path d="M 279 16.5  C 277.32 16.5  276 15.18  276 13.5  C 276 11.82  277.32 10.5  279 10.5  C 280.68 10.5  282 11.82  282 13.5  C 282 15.18  280.68 16.5  279 16.5  " fill-rule="nonzero" fill="#d7d7d7" stroke="none" />
</svg>