<?xml version="1.0" encoding="utf-8"?>
<svg version="1.1" xmlns:xlink="http://www.w3.org/1999/xlink" width="12px" height="12px" viewBox="448 7.5  12 12" xmlns="http://www.w3.org/2000/svg">
  <path d="M 454 7.5  C 457.36 7.5  460 10.14  460 13.5  C 460 16.86  457.36 19.5  454 19.5  C 450.64 19.5  448 16.86  448 13.5  C 448 10.14  450.64 7.5  454 7.5  Z " fill-rule="nonzero" fill="#f0f0f0" stroke="none" />
  <path d="M 454 8  C 457.08 8  459.5 10.42  459.5 13.5  C 459.5 16.58  457.08 19  454 19  C 450.92 19  448.5 16.58  448.5 13.5  C 448.5 10.42  450.92 8  454 8  Z " stroke-width="1" stroke="#d7d7d7" fill="none" />
  <path d="M 454 16.5  C 452.32 16.5  451 15.18  451 13.5  C 451 11.82  452.32 10.5  454 10.5  C 455.68 10.5  457 11.82  457 13.5  C 457 15.18  455.68 16.5  454 16.5  " fill-rule="nonzero" fill="#d7d7d7" stroke="none" />
</svg>