<?xml version="1.0" encoding="utf-8"?>
<svg version="1.1" xmlns:xlink="http://www.w3.org/1999/xlink" width="12px" height="12px" viewBox="363 7.5  12 12" xmlns="http://www.w3.org/2000/svg">
  <path d="M 369 7.5  C 372.36 7.5  375 10.14  375 13.5  C 375 16.86  372.36 19.5  369 19.5  C 365.64 19.5  363 16.86  363 13.5  C 363 10.14  365.64 7.5  369 7.5  Z " fill-rule="nonzero" fill="#ffffff" stroke="none" />
  <path d="M 369 8  C 372.08 8  374.5 10.42  374.5 13.5  C 374.5 16.58  372.08 19  369 19  C 365.92 19  363.5 16.58  363.5 13.5  C 363.5 10.42  365.92 8  369 8  Z " stroke-width="1" stroke="#d7d7d7" fill="none" />
  <path d="M 369 16.5  C 367.32 16.5  366 15.18  366 13.5  C 366 11.82  367.32 10.5  369 10.5  C 370.68 10.5  372 11.82  372 13.5  C 372 15.18  370.68 16.5  369 16.5  " fill-rule="nonzero" fill="#d7d7d7" stroke="none" />
</svg>