<?xml version="1.0" encoding="utf-8"?>
<svg version="1.1" xmlns:xlink="http://www.w3.org/1999/xlink" width="12px" height="12px" viewBox="112 3.5  12 12" xmlns="http://www.w3.org/2000/svg">
  <path d="M 118 3.5  C 121.36 3.5  124 6.14  124 9.5  C 124 12.86  121.36 15.5  118 15.5  C 114.64 15.5  112 12.86  112 9.5  C 112 6.14  114.64 3.5  118 3.5  Z " fill-rule="nonzero" fill="#f0f0f0" stroke="none" />
  <path d="M 118 4  C 121.08 4  123.5 6.42  123.5 9.5  C 123.5 12.58  121.08 15  118 15  C 114.92 15  112.5 12.58  112.5 9.5  C 112.5 6.42  114.92 4  118 4  Z " stroke-width="1" stroke="#d7d7d7" fill="none" />
  <path d="M 118 12.5  C 116.32 12.5  115 11.18  115 9.5  C 115 7.82  116.32 6.5  118 6.5  C 119.68 6.5  121 7.82  121 9.5  C 121 11.18  119.68 12.5  118 12.5  " fill-rule="nonzero" fill="#d7d7d7" stroke="none" />
</svg>