<?xml version="1.0" encoding="utf-8"?>
<svg version="1.1" xmlns:xlink="http://www.w3.org/1999/xlink" width="280px" height="84px" xmlns="http://www.w3.org/2000/svg">
  <g transform="matrix(1 0 0 1 -2164 -579 )">
    <path d="M 2165 583  A 3 3 0 0 1 2168 580 L 2440 580  A 3 3 0 0 1 2443 583 L 2443 659  A 3 3 0 0 1 2440 662 L 2168 662  A 3 3 0 0 1 2165 659 L 2165 583  Z " fill-rule="nonzero" fill="#ff3399" stroke="none" fill-opacity="0.0980392156862745" />
    <path d="M 2164.5 583  A 3.5 3.5 0 0 1 2168 579.5 L 2440 579.5  A 3.5 3.5 0 0 1 2443.5 583 L 2443.5 659  A 3.5 3.5 0 0 1 2440 662.5 L 2168 662.5  A 3.5 3.5 0 0 1 2164.5 659 L 2164.5 583  Z " stroke-width="1" stroke-dasharray="9,4" stroke="#ff3399" fill="none" stroke-dashoffset="0.5" />
  </g>
</svg>