<?xml version="1.0" encoding="utf-8"?>
<svg version="1.1" xmlns:xlink="http://www.w3.org/1999/xlink" width="30px" height="29px" xmlns="http://www.w3.org/2000/svg">
  <g transform="matrix(1 0 0 1 -1630 -740 )">
    <path d="M 29.6993987975952 15.6708074534161  C 29.8997995991984 15.4706694271912  30 15.2405106970324  30 14.98033126294  C 30 14.7201518288475  29.8997995991984 14.4899930986888  29.6993987975952 14.2898550724638  L 15.6913827655311 0.300207039337474  C 15.4909819639279 0.100069013112489  15.2605210420842 0  15 0  C 14.7394789579158 0  14.5090180360721 0.100069013112489  14.3086172344689 0.300207039337474  L 0.30060120240481 14.2898550724638  C 0.100200400801604 14.4899930986888  0 14.7201518288475  0 14.98033126294  C 0 15.2405106970324  0.100200400801604 15.4706694271912  0.30060120240481 15.6708074534161  L 1.80360721442886 17.1718426501035  C 2.00400801603206 17.3719806763285  2.23446893787575 17.472049689441  2.49498997995992 17.472049689441  C 2.75551102204409 17.472049689441  2.98597194388778 17.3719806763285  3.18637274549098 17.1718426501035  L 15 5.37370600414079  L 26.813627254509 17.1718426501035  C 27.0140280561122 17.3719806763285  27.2444889779559 17.472049689441  27.5050100200401 17.472049689441  C 27.7655310621243 17.472049689441  27.9959919839679 17.3719806763285  28.1963927855711 17.1718426501035  L 29.6993987975952 15.6708074534161  Z M 29.6993987975952 27.1987577639752  C 29.8997995991984 26.9986197377502  30 26.7684610075914  30 26.508281573499  C 30 26.2481021394065  29.8997995991984 26.0179434092478  29.6993987975952 25.8178053830228  L 15.6913827655311 11.8281573498965  C 15.4909819639279 11.6280193236715  15.2605210420842 11.527950310559  15 11.527950310559  C 14.7394789579158 11.527950310559  14.5090180360721 11.6280193236715  14.3086172344689 11.8281573498965  L 0.30060120240481 25.8178053830228  C 0.100200400801604 26.0179434092478  0 26.2481021394065  0 26.508281573499  C 0 26.7684610075914  0.100200400801604 26.9986197377502  0.30060120240481 27.1987577639752  L 1.80360721442886 28.6997929606625  C 2.00400801603206 28.8999309868875  2.23446893787575 29  2.49498997995992 29  C 2.75551102204409 29  2.98597194388778 28.8999309868875  3.18637274549098 28.6997929606625  L 15 16.9016563146998  L 26.813627254509 28.6997929606625  C 27.0140280561122 28.8999309868875  27.2444889779559 29  27.5050100200401 29  C 27.7655310621243 29  27.9959919839679 28.8999309868875  28.1963927855711 28.6997929606625  L 29.6993987975952 27.1987577639752  Z " fill-rule="nonzero" fill="#aaaaaa" stroke="none" transform="matrix(1 0 0 1 1630 740 )" />
  </g>
</svg>